ISO-10303-21;
HEADER;
/* Generated by software containing ST-Developer
 * from STEP Tools, Inc. (www.steptools.com) 
 */
/* OPTION: using custom renumber hook */

FILE_DESCRIPTION(
/* description */ ('STEP AP242 Edition 2',
'CAx-IF Rec.Pracs.---Representation and Presentation of Product Manufa
cturing Information (PMI)---4.0---2014-10-13',
'CAx-IF Rec.Pracs.---3D Tessellated Geometry---0.4---2014-09-14','2;1',
'CAx-IF Rec.Pracs.---User Defined Attributes---1.5---2016-08-15'),
/* implementation_level */ '2;1');

FILE_NAME(
/* name */ 'Top_Case',
/* time_stamp */ '2026-07-08T14:26:53Z',
/* author */ (''),
/* organization */ (''),
/* preprocessor_version */ 'ST-DEVELOPER v20',
/* originating_system */ 'ONSHAPE BY PTC INC, 1.217',
/* authorisation */ '  ');

FILE_SCHEMA (('AP242_MANAGED_MODEL_BASED_3D_ENGINEERING_MIM_LF { 1 0 10303 442 3 1 4 }'));
ENDSEC;

DATA;
#10=VERTEX_LOOP('',#579);
#11=VERTEX_LOOP('',#581);
#12=VERTEX_LOOP('',#583);
#13=VERTEX_LOOP('',#585);
#14=CONICAL_SURFACE('',#1235,0.00125,1.02974425867665);
#15=CONICAL_SURFACE('',#1238,0.00125,1.02974425867665);
#16=CONICAL_SURFACE('',#1241,0.00125,1.02974425867665);
#17=CONICAL_SURFACE('',#1244,0.00125,1.02974425867665);
#18=SHAPE_REPRESENTATION_RELATIONSHIP('','',#1150,#20);
#19=SHAPE_REPRESENTATION_RELATIONSHIP('','',#1151,#21);
#20=ADVANCED_BREP_SHAPE_REPRESENTATION('',(#1146),#1850);
#21=ADVANCED_BREP_SHAPE_REPRESENTATION('',(#1147),#1851);
#22=CYLINDRICAL_SURFACE('',#1192,0.00125);
#23=CYLINDRICAL_SURFACE('',#1193,0.00125);
#24=CYLINDRICAL_SURFACE('',#1194,0.00125);
#25=CYLINDRICAL_SURFACE('',#1195,0.00125);
#26=CYLINDRICAL_SURFACE('',#1196,0.00125);
#27=CYLINDRICAL_SURFACE('',#1197,0.00125);
#28=CYLINDRICAL_SURFACE('',#1198,0.00125);
#29=CYLINDRICAL_SURFACE('',#1199,0.00125);
#30=CYLINDRICAL_SURFACE('',#1226,0.00175);
#31=CYLINDRICAL_SURFACE('',#1227,0.00175);
#32=CYLINDRICAL_SURFACE('',#1228,0.00175);
#33=CYLINDRICAL_SURFACE('',#1229,0.00175);
#34=CYLINDRICAL_SURFACE('',#1237,0.00125);
#35=CYLINDRICAL_SURFACE('',#1240,0.00125);
#36=CYLINDRICAL_SURFACE('',#1243,0.00125);
#37=CYLINDRICAL_SURFACE('',#1246,0.00125);
#38=CIRCLE('',#1164,0.00125);
#39=CIRCLE('',#1165,0.00125);
#40=CIRCLE('',#1166,0.00125);
#41=CIRCLE('',#1167,0.00125);
#42=CIRCLE('',#1168,0.00125);
#43=CIRCLE('',#1169,0.00125);
#44=CIRCLE('',#1170,0.00125);
#45=CIRCLE('',#1171,0.00125);
#46=CIRCLE('',#1178,0.00125);
#47=CIRCLE('',#1179,0.00125);
#48=CIRCLE('',#1180,0.00125);
#49=CIRCLE('',#1181,0.00125);
#50=CIRCLE('',#1188,0.00125);
#51=CIRCLE('',#1189,0.00125);
#52=CIRCLE('',#1190,0.00125);
#53=CIRCLE('',#1191,0.00125);
#54=CIRCLE('',#1210,0.00175);
#55=CIRCLE('',#1211,0.00175);
#56=CIRCLE('',#1212,0.00175);
#57=CIRCLE('',#1213,0.00175);
#58=CIRCLE('',#1215,0.00175);
#59=CIRCLE('',#1216,0.00175);
#60=CIRCLE('',#1217,0.00175);
#61=CIRCLE('',#1218,0.00175);
#62=CIRCLE('',#1231,0.00125);
#63=CIRCLE('',#1232,0.00125);
#64=CIRCLE('',#1233,0.00125);
#65=CIRCLE('',#1234,0.00125);
#66=CIRCLE('',#1236,0.00125);
#67=CIRCLE('',#1239,0.00125);
#68=CIRCLE('',#1242,0.00125);
#69=CIRCLE('',#1245,0.00125);
#70=ORIENTED_EDGE('',*,*,#344,.F.);
#71=ORIENTED_EDGE('',*,*,#345,.T.);
#72=ORIENTED_EDGE('',*,*,#346,.F.);
#73=ORIENTED_EDGE('',*,*,#347,.F.);
#74=ORIENTED_EDGE('',*,*,#345,.F.);
#75=ORIENTED_EDGE('',*,*,#348,.T.);
#76=ORIENTED_EDGE('',*,*,#349,.T.);
#77=ORIENTED_EDGE('',*,*,#350,.T.);
#78=ORIENTED_EDGE('',*,*,#349,.F.);
#79=ORIENTED_EDGE('',*,*,#351,.T.);
#80=ORIENTED_EDGE('',*,*,#352,.T.);
#81=ORIENTED_EDGE('',*,*,#353,.T.);
#82=ORIENTED_EDGE('',*,*,#354,.F.);
#83=ORIENTED_EDGE('',*,*,#347,.T.);
#84=ORIENTED_EDGE('',*,*,#355,.F.);
#85=ORIENTED_EDGE('',*,*,#352,.F.);
#86=ORIENTED_EDGE('',*,*,#356,.F.);
#87=ORIENTED_EDGE('',*,*,#357,.T.);
#88=ORIENTED_EDGE('',*,*,#358,.T.);
#89=ORIENTED_EDGE('',*,*,#359,.T.);
#90=ORIENTED_EDGE('',*,*,#358,.F.);
#91=ORIENTED_EDGE('',*,*,#360,.T.);
#92=ORIENTED_EDGE('',*,*,#361,.T.);
#93=ORIENTED_EDGE('',*,*,#362,.T.);
#94=ORIENTED_EDGE('',*,*,#363,.F.);
#95=ORIENTED_EDGE('',*,*,#364,.T.);
#96=ORIENTED_EDGE('',*,*,#365,.F.);
#97=ORIENTED_EDGE('',*,*,#366,.F.);
#98=ORIENTED_EDGE('',*,*,#367,.F.);
#99=ORIENTED_EDGE('',*,*,#366,.T.);
#100=ORIENTED_EDGE('',*,*,#368,.F.);
#101=ORIENTED_EDGE('',*,*,#369,.F.);
#102=ORIENTED_EDGE('',*,*,#370,.F.);
#103=ORIENTED_EDGE('',*,*,#369,.T.);
#104=ORIENTED_EDGE('',*,*,#371,.F.);
#105=ORIENTED_EDGE('',*,*,#372,.F.);
#106=ORIENTED_EDGE('',*,*,#373,.F.);
#107=ORIENTED_EDGE('',*,*,#372,.T.);
#108=ORIENTED_EDGE('',*,*,#374,.F.);
#109=ORIENTED_EDGE('',*,*,#364,.F.);
#110=ORIENTED_EDGE('',*,*,#375,.T.);
#111=ORIENTED_EDGE('',*,*,#376,.T.);
#112=ORIENTED_EDGE('',*,*,#377,.T.);
#113=ORIENTED_EDGE('',*,*,#378,.T.);
#114=ORIENTED_EDGE('',*,*,#379,.T.);
#115=ORIENTED_EDGE('',*,*,#380,.T.);
#116=ORIENTED_EDGE('',*,*,#381,.T.);
#117=ORIENTED_EDGE('',*,*,#382,.T.);
#118=ORIENTED_EDGE('',*,*,#374,.T.);
#119=ORIENTED_EDGE('',*,*,#371,.T.);
#120=ORIENTED_EDGE('',*,*,#368,.T.);
#121=ORIENTED_EDGE('',*,*,#365,.T.);
#122=ORIENTED_EDGE('',*,*,#362,.F.);
#123=ORIENTED_EDGE('',*,*,#383,.T.);
#124=ORIENTED_EDGE('',*,*,#384,.T.);
#125=ORIENTED_EDGE('',*,*,#359,.F.);
#126=ORIENTED_EDGE('',*,*,#353,.F.);
#127=ORIENTED_EDGE('',*,*,#355,.T.);
#128=ORIENTED_EDGE('',*,*,#346,.T.);
#129=ORIENTED_EDGE('',*,*,#350,.F.);
#130=ORIENTED_EDGE('',*,*,#385,.F.);
#131=ORIENTED_EDGE('',*,*,#356,.T.);
#132=ORIENTED_EDGE('',*,*,#384,.F.);
#133=ORIENTED_EDGE('',*,*,#386,.F.);
#134=ORIENTED_EDGE('',*,*,#387,.F.);
#135=ORIENTED_EDGE('',*,*,#388,.T.);
#136=ORIENTED_EDGE('',*,*,#389,.T.);
#137=ORIENTED_EDGE('',*,*,#390,.T.);
#138=ORIENTED_EDGE('',*,*,#389,.F.);
#139=ORIENTED_EDGE('',*,*,#391,.T.);
#140=ORIENTED_EDGE('',*,*,#392,.T.);
#141=ORIENTED_EDGE('',*,*,#393,.T.);
#142=ORIENTED_EDGE('',*,*,#392,.F.);
#143=ORIENTED_EDGE('',*,*,#394,.T.);
#144=ORIENTED_EDGE('',*,*,#395,.T.);
#145=ORIENTED_EDGE('',*,*,#396,.T.);
#146=ORIENTED_EDGE('',*,*,#395,.F.);
#147=ORIENTED_EDGE('',*,*,#397,.T.);
#148=ORIENTED_EDGE('',*,*,#387,.T.);
#149=ORIENTED_EDGE('',*,*,#398,.T.);
#150=ORIENTED_EDGE('',*,*,#399,.T.);
#151=ORIENTED_EDGE('',*,*,#400,.T.);
#152=ORIENTED_EDGE('',*,*,#401,.T.);
#153=ORIENTED_EDGE('',*,*,#402,.T.);
#154=ORIENTED_EDGE('',*,*,#403,.T.);
#155=ORIENTED_EDGE('',*,*,#404,.F.);
#156=ORIENTED_EDGE('',*,*,#405,.F.);
#157=ORIENTED_EDGE('',*,*,#406,.T.);
#158=ORIENTED_EDGE('',*,*,#407,.T.);
#159=ORIENTED_EDGE('',*,*,#360,.F.);
#160=ORIENTED_EDGE('',*,*,#357,.F.);
#161=ORIENTED_EDGE('',*,*,#385,.T.);
#162=ORIENTED_EDGE('',*,*,#354,.T.);
#163=ORIENTED_EDGE('',*,*,#351,.F.);
#164=ORIENTED_EDGE('',*,*,#348,.F.);
#165=ORIENTED_EDGE('',*,*,#344,.T.);
#166=ORIENTED_EDGE('',*,*,#398,.F.);
#167=ORIENTED_EDGE('',*,*,#390,.F.);
#168=ORIENTED_EDGE('',*,*,#393,.F.);
#169=ORIENTED_EDGE('',*,*,#396,.F.);
#170=ORIENTED_EDGE('',*,*,#408,.F.);
#171=ORIENTED_EDGE('',*,*,#409,.F.);
#172=ORIENTED_EDGE('',*,*,#406,.F.);
#173=ORIENTED_EDGE('',*,*,#410,.F.);
#174=ORIENTED_EDGE('',*,*,#411,.T.);
#175=ORIENTED_EDGE('',*,*,#412,.T.);
#176=ORIENTED_EDGE('',*,*,#413,.T.);
#177=ORIENTED_EDGE('',*,*,#404,.T.);
#178=ORIENTED_EDGE('',*,*,#413,.F.);
#179=ORIENTED_EDGE('',*,*,#414,.T.);
#180=ORIENTED_EDGE('',*,*,#410,.T.);
#181=ORIENTED_EDGE('',*,*,#405,.T.);
#182=ORIENTED_EDGE('',*,*,#415,.F.);
#183=ORIENTED_EDGE('',*,*,#411,.F.);
#184=ORIENTED_EDGE('',*,*,#403,.F.);
#185=ORIENTED_EDGE('',*,*,#386,.T.);
#186=ORIENTED_EDGE('',*,*,#383,.F.);
#187=ORIENTED_EDGE('',*,*,#361,.F.);
#188=ORIENTED_EDGE('',*,*,#407,.F.);
#189=ORIENTED_EDGE('',*,*,#409,.T.);
#190=ORIENTED_EDGE('',*,*,#408,.T.);
#191=ORIENTED_EDGE('',*,*,#414,.F.);
#192=ORIENTED_EDGE('',*,*,#412,.F.);
#193=ORIENTED_EDGE('',*,*,#415,.T.);
#194=ORIENTED_EDGE('',*,*,#416,.F.);
#195=ORIENTED_EDGE('',*,*,#417,.F.);
#196=ORIENTED_EDGE('',*,*,#418,.F.);
#197=ORIENTED_EDGE('',*,*,#419,.F.);
#198=ORIENTED_EDGE('',*,*,#373,.T.);
#199=ORIENTED_EDGE('',*,*,#363,.T.);
#200=ORIENTED_EDGE('',*,*,#367,.T.);
#201=ORIENTED_EDGE('',*,*,#370,.T.);
#202=ORIENTED_EDGE('',*,*,#394,.F.);
#203=ORIENTED_EDGE('',*,*,#391,.F.);
#204=ORIENTED_EDGE('',*,*,#388,.F.);
#205=ORIENTED_EDGE('',*,*,#397,.F.);
#206=ORIENTED_EDGE('',*,*,#382,.F.);
#207=ORIENTED_EDGE('',*,*,#402,.F.);
#208=ORIENTED_EDGE('',*,*,#381,.F.);
#209=ORIENTED_EDGE('',*,*,#401,.F.);
#210=ORIENTED_EDGE('',*,*,#380,.F.);
#211=ORIENTED_EDGE('',*,*,#400,.F.);
#212=ORIENTED_EDGE('',*,*,#379,.F.);
#213=ORIENTED_EDGE('',*,*,#399,.F.);
#214=ORIENTED_EDGE('',*,*,#378,.F.);
#215=ORIENTED_EDGE('',*,*,#419,.T.);
#216=ORIENTED_EDGE('',*,*,#377,.F.);
#217=ORIENTED_EDGE('',*,*,#418,.T.);
#218=ORIENTED_EDGE('',*,*,#376,.F.);
#219=ORIENTED_EDGE('',*,*,#417,.T.);
#220=ORIENTED_EDGE('',*,*,#375,.F.);
#221=ORIENTED_EDGE('',*,*,#416,.T.);
#222=ORIENTED_EDGE('',*,*,#420,.T.);
#223=ORIENTED_EDGE('',*,*,#421,.T.);
#224=ORIENTED_EDGE('',*,*,#422,.F.);
#225=ORIENTED_EDGE('',*,*,#423,.T.);
#226=ORIENTED_EDGE('',*,*,#424,.T.);
#227=ORIENTED_EDGE('',*,*,#425,.T.);
#228=ORIENTED_EDGE('',*,*,#420,.F.);
#229=ORIENTED_EDGE('',*,*,#426,.T.);
#230=ORIENTED_EDGE('',*,*,#427,.T.);
#231=ORIENTED_EDGE('',*,*,#428,.T.);
#232=ORIENTED_EDGE('',*,*,#424,.F.);
#233=ORIENTED_EDGE('',*,*,#429,.T.);
#234=ORIENTED_EDGE('',*,*,#422,.T.);
#235=ORIENTED_EDGE('',*,*,#430,.T.);
#236=ORIENTED_EDGE('',*,*,#427,.F.);
#237=ORIENTED_EDGE('',*,*,#431,.T.);
#238=ORIENTED_EDGE('',*,*,#432,.F.);
#239=ORIENTED_EDGE('',*,*,#433,.F.);
#240=ORIENTED_EDGE('',*,*,#434,.F.);
#241=ORIENTED_EDGE('',*,*,#435,.T.);
#242=ORIENTED_EDGE('',*,*,#436,.F.);
#243=ORIENTED_EDGE('',*,*,#437,.F.);
#244=ORIENTED_EDGE('',*,*,#438,.F.);
#245=ORIENTED_EDGE('',*,*,#433,.T.);
#246=ORIENTED_EDGE('',*,*,#439,.F.);
#247=ORIENTED_EDGE('',*,*,#440,.F.);
#248=ORIENTED_EDGE('',*,*,#441,.F.);
#249=ORIENTED_EDGE('',*,*,#437,.T.);
#250=ORIENTED_EDGE('',*,*,#442,.F.);
#251=ORIENTED_EDGE('',*,*,#435,.F.);
#252=ORIENTED_EDGE('',*,*,#443,.F.);
#253=ORIENTED_EDGE('',*,*,#440,.T.);
#254=ORIENTED_EDGE('',*,*,#444,.F.);
#255=ORIENTED_EDGE('',*,*,#445,.F.);
#256=ORIENTED_EDGE('',*,*,#446,.F.);
#257=ORIENTED_EDGE('',*,*,#447,.F.);
#258=ORIENTED_EDGE('',*,*,#423,.F.);
#259=ORIENTED_EDGE('',*,*,#431,.F.);
#260=ORIENTED_EDGE('',*,*,#429,.F.);
#261=ORIENTED_EDGE('',*,*,#426,.F.);
#262=ORIENTED_EDGE('',*,*,#448,.F.);
#263=ORIENTED_EDGE('',*,*,#449,.F.);
#264=ORIENTED_EDGE('',*,*,#450,.F.);
#265=ORIENTED_EDGE('',*,*,#451,.F.);
#266=ORIENTED_EDGE('',*,*,#452,.F.);
#267=ORIENTED_EDGE('',*,*,#453,.F.);
#268=ORIENTED_EDGE('',*,*,#454,.F.);
#269=ORIENTED_EDGE('',*,*,#455,.T.);
#270=ORIENTED_EDGE('',*,*,#456,.T.);
#271=ORIENTED_EDGE('',*,*,#457,.T.);
#272=ORIENTED_EDGE('',*,*,#458,.T.);
#273=ORIENTED_EDGE('',*,*,#434,.T.);
#274=ORIENTED_EDGE('',*,*,#438,.T.);
#275=ORIENTED_EDGE('',*,*,#441,.T.);
#276=ORIENTED_EDGE('',*,*,#443,.T.);
#277=ORIENTED_EDGE('',*,*,#459,.T.);
#278=ORIENTED_EDGE('',*,*,#460,.T.);
#279=ORIENTED_EDGE('',*,*,#461,.T.);
#280=ORIENTED_EDGE('',*,*,#462,.T.);
#281=ORIENTED_EDGE('',*,*,#463,.T.);
#282=ORIENTED_EDGE('',*,*,#464,.T.);
#283=ORIENTED_EDGE('',*,*,#465,.T.);
#284=ORIENTED_EDGE('',*,*,#448,.T.);
#285=ORIENTED_EDGE('',*,*,#466,.T.);
#286=ORIENTED_EDGE('',*,*,#460,.F.);
#287=ORIENTED_EDGE('',*,*,#467,.F.);
#288=ORIENTED_EDGE('',*,*,#449,.T.);
#289=ORIENTED_EDGE('',*,*,#467,.T.);
#290=ORIENTED_EDGE('',*,*,#459,.F.);
#291=ORIENTED_EDGE('',*,*,#468,.F.);
#292=ORIENTED_EDGE('',*,*,#450,.T.);
#293=ORIENTED_EDGE('',*,*,#468,.T.);
#294=ORIENTED_EDGE('',*,*,#465,.F.);
#295=ORIENTED_EDGE('',*,*,#469,.F.);
#296=ORIENTED_EDGE('',*,*,#451,.T.);
#297=ORIENTED_EDGE('',*,*,#469,.T.);
#298=ORIENTED_EDGE('',*,*,#464,.F.);
#299=ORIENTED_EDGE('',*,*,#470,.F.);
#300=ORIENTED_EDGE('',*,*,#452,.T.);
#301=ORIENTED_EDGE('',*,*,#470,.T.);
#302=ORIENTED_EDGE('',*,*,#463,.F.);
#303=ORIENTED_EDGE('',*,*,#471,.F.);
#304=ORIENTED_EDGE('',*,*,#453,.T.);
#305=ORIENTED_EDGE('',*,*,#471,.T.);
#306=ORIENTED_EDGE('',*,*,#462,.F.);
#307=ORIENTED_EDGE('',*,*,#472,.F.);
#308=ORIENTED_EDGE('',*,*,#454,.T.);
#309=ORIENTED_EDGE('',*,*,#472,.T.);
#310=ORIENTED_EDGE('',*,*,#461,.F.);
#311=ORIENTED_EDGE('',*,*,#466,.F.);
#312=ORIENTED_EDGE('',*,*,#458,.F.);
#313=ORIENTED_EDGE('',*,*,#447,.T.);
#314=ORIENTED_EDGE('',*,*,#457,.F.);
#315=ORIENTED_EDGE('',*,*,#446,.T.);
#316=ORIENTED_EDGE('',*,*,#456,.F.);
#317=ORIENTED_EDGE('',*,*,#445,.T.);
#318=ORIENTED_EDGE('',*,*,#455,.F.);
#319=ORIENTED_EDGE('',*,*,#444,.T.);
#320=ORIENTED_EDGE('',*,*,#473,.T.);
#321=ORIENTED_EDGE('',*,*,#474,.T.);
#322=ORIENTED_EDGE('',*,*,#475,.T.);
#323=ORIENTED_EDGE('',*,*,#476,.T.);
#324=ORIENTED_EDGE('',*,*,#421,.F.);
#325=ORIENTED_EDGE('',*,*,#425,.F.);
#326=ORIENTED_EDGE('',*,*,#428,.F.);
#327=ORIENTED_EDGE('',*,*,#430,.F.);
#328=ORIENTED_EDGE('',*,*,#436,.T.);
#329=ORIENTED_EDGE('',*,*,#432,.T.);
#330=ORIENTED_EDGE('',*,*,#442,.T.);
#331=ORIENTED_EDGE('',*,*,#439,.T.);
#332=ORIENTED_EDGE('',*,*,#477,.F.);
#333=ORIENTED_EDGE('',*,*,#476,.F.);
#334=ORIENTED_EDGE('',*,*,#477,.T.);
#335=ORIENTED_EDGE('',*,*,#478,.F.);
#336=ORIENTED_EDGE('',*,*,#475,.F.);
#337=ORIENTED_EDGE('',*,*,#478,.T.);
#338=ORIENTED_EDGE('',*,*,#479,.F.);
#339=ORIENTED_EDGE('',*,*,#474,.F.);
#340=ORIENTED_EDGE('',*,*,#479,.T.);
#341=ORIENTED_EDGE('',*,*,#480,.F.);
#342=ORIENTED_EDGE('',*,*,#473,.F.);
#343=ORIENTED_EDGE('',*,*,#480,.T.);
#344=EDGE_CURVE('',#481,#482,#587,.T.);
#345=EDGE_CURVE('',#481,#483,#588,.T.);
#346=EDGE_CURVE('',#484,#483,#589,.T.);
#347=EDGE_CURVE('',#482,#484,#590,.T.);
#348=EDGE_CURVE('',#481,#485,#591,.T.);
#349=EDGE_CURVE('',#485,#486,#592,.T.);
#350=EDGE_CURVE('',#486,#483,#593,.T.);
#351=EDGE_CURVE('',#485,#487,#594,.T.);
#352=EDGE_CURVE('',#487,#488,#595,.T.);
#353=EDGE_CURVE('',#488,#486,#596,.T.);
#354=EDGE_CURVE('',#482,#487,#597,.T.);
#355=EDGE_CURVE('',#488,#484,#598,.T.);
#356=EDGE_CURVE('',#489,#490,#599,.T.);
#357=EDGE_CURVE('',#489,#491,#600,.T.);
#358=EDGE_CURVE('',#491,#492,#601,.T.);
#359=EDGE_CURVE('',#492,#490,#602,.T.);
#360=EDGE_CURVE('',#491,#493,#603,.T.);
#361=EDGE_CURVE('',#493,#494,#604,.T.);
#362=EDGE_CURVE('',#494,#492,#605,.T.);
#363=EDGE_CURVE('',#495,#496,#606,.T.);
#364=EDGE_CURVE('',#495,#497,#607,.T.);
#365=EDGE_CURVE('',#498,#497,#608,.T.);
#366=EDGE_CURVE('',#496,#498,#609,.T.);
#367=EDGE_CURVE('',#496,#499,#610,.T.);
#368=EDGE_CURVE('',#500,#498,#611,.T.);
#369=EDGE_CURVE('',#499,#500,#612,.T.);
#370=EDGE_CURVE('',#499,#501,#613,.T.);
#371=EDGE_CURVE('',#502,#500,#614,.T.);
#372=EDGE_CURVE('',#501,#502,#615,.T.);
#373=EDGE_CURVE('',#501,#495,#616,.T.);
#374=EDGE_CURVE('',#497,#502,#617,.T.);
#375=EDGE_CURVE('',#503,#503,#38,.T.);
#376=EDGE_CURVE('',#504,#504,#39,.T.);
#377=EDGE_CURVE('',#505,#505,#40,.T.);
#378=EDGE_CURVE('',#506,#506,#41,.T.);
#379=EDGE_CURVE('',#507,#507,#42,.F.);
#380=EDGE_CURVE('',#508,#508,#43,.F.);
#381=EDGE_CURVE('',#509,#509,#44,.F.);
#382=EDGE_CURVE('',#510,#510,#45,.F.);
#383=EDGE_CURVE('',#494,#511,#618,.T.);
#384=EDGE_CURVE('',#511,#490,#619,.T.);
#385=EDGE_CURVE('',#489,#512,#620,.T.);
#386=EDGE_CURVE('',#512,#511,#621,.T.);
#387=EDGE_CURVE('',#513,#514,#622,.T.);
#388=EDGE_CURVE('',#513,#515,#623,.T.);
#389=EDGE_CURVE('',#515,#516,#624,.T.);
#390=EDGE_CURVE('',#516,#514,#625,.T.);
#391=EDGE_CURVE('',#515,#517,#626,.T.);
#392=EDGE_CURVE('',#517,#518,#627,.T.);
#393=EDGE_CURVE('',#518,#516,#628,.T.);
#394=EDGE_CURVE('',#517,#519,#629,.T.);
#395=EDGE_CURVE('',#519,#520,#630,.T.);
#396=EDGE_CURVE('',#520,#518,#631,.T.);
#397=EDGE_CURVE('',#519,#513,#632,.T.);
#398=EDGE_CURVE('',#514,#520,#633,.T.);
#399=EDGE_CURVE('',#521,#521,#46,.T.);
#400=EDGE_CURVE('',#522,#522,#47,.T.);
#401=EDGE_CURVE('',#523,#523,#48,.T.);
#402=EDGE_CURVE('',#524,#524,#49,.T.);
#403=EDGE_CURVE('',#512,#525,#634,.T.);
#404=EDGE_CURVE('',#526,#525,#635,.T.);
#405=EDGE_CURVE('',#527,#526,#636,.T.);
#406=EDGE_CURVE('',#527,#528,#637,.T.);
#407=EDGE_CURVE('',#528,#493,#638,.T.);
#408=EDGE_CURVE('',#529,#530,#639,.T.);
#409=EDGE_CURVE('',#528,#529,#640,.T.);
#410=EDGE_CURVE('',#530,#527,#641,.T.);
#411=EDGE_CURVE('',#525,#531,#642,.T.);
#412=EDGE_CURVE('',#531,#532,#643,.T.);
#413=EDGE_CURVE('',#532,#526,#644,.T.);
#414=EDGE_CURVE('',#532,#530,#645,.T.);
#415=EDGE_CURVE('',#531,#529,#646,.T.);
#416=EDGE_CURVE('',#533,#533,#50,.F.);
#417=EDGE_CURVE('',#534,#534,#51,.F.);
#418=EDGE_CURVE('',#535,#535,#52,.F.);
#419=EDGE_CURVE('',#536,#536,#53,.F.);
#420=EDGE_CURVE('',#537,#538,#647,.T.);
#421=EDGE_CURVE('',#538,#539,#648,.T.);
#422=EDGE_CURVE('',#540,#539,#649,.T.);
#423=EDGE_CURVE('',#540,#537,#650,.T.);
#424=EDGE_CURVE('',#541,#542,#651,.T.);
#425=EDGE_CURVE('',#542,#538,#652,.T.);
#426=EDGE_CURVE('',#537,#541,#653,.T.);
#427=EDGE_CURVE('',#543,#544,#654,.T.);
#428=EDGE_CURVE('',#544,#542,#655,.T.);
#429=EDGE_CURVE('',#541,#543,#656,.T.);
#430=EDGE_CURVE('',#539,#544,#657,.T.);
#431=EDGE_CURVE('',#543,#540,#658,.T.);
#432=EDGE_CURVE('',#545,#546,#659,.T.);
#433=EDGE_CURVE('',#547,#545,#660,.T.);
#434=EDGE_CURVE('',#548,#547,#661,.T.);
#435=EDGE_CURVE('',#548,#546,#662,.T.);
#436=EDGE_CURVE('',#549,#545,#663,.T.);
#437=EDGE_CURVE('',#550,#549,#664,.T.);
#438=EDGE_CURVE('',#547,#550,#665,.T.);
#439=EDGE_CURVE('',#551,#549,#666,.T.);
#440=EDGE_CURVE('',#552,#551,#667,.T.);
#441=EDGE_CURVE('',#550,#552,#668,.T.);
#442=EDGE_CURVE('',#546,#551,#669,.T.);
#443=EDGE_CURVE('',#552,#548,#670,.T.);
#444=EDGE_CURVE('',#553,#553,#54,.F.);
#445=EDGE_CURVE('',#554,#554,#55,.F.);
#446=EDGE_CURVE('',#555,#555,#56,.F.);
#447=EDGE_CURVE('',#556,#556,#57,.F.);
#448=EDGE_CURVE('',#557,#558,#671,.T.);
#449=EDGE_CURVE('',#559,#557,#672,.T.);
#450=EDGE_CURVE('',#560,#559,#673,.T.);
#451=EDGE_CURVE('',#561,#560,#674,.T.);
#452=EDGE_CURVE('',#562,#561,#675,.T.);
#453=EDGE_CURVE('',#563,#562,#676,.T.);
#454=EDGE_CURVE('',#558,#563,#677,.T.);
#455=EDGE_CURVE('',#564,#564,#58,.F.);
#456=EDGE_CURVE('',#565,#565,#59,.F.);
#457=EDGE_CURVE('',#566,#566,#60,.F.);
#458=EDGE_CURVE('',#567,#567,#61,.F.);
#459=EDGE_CURVE('',#568,#569,#678,.T.);
#460=EDGE_CURVE('',#569,#570,#679,.T.);
#461=EDGE_CURVE('',#570,#571,#680,.T.);
#462=EDGE_CURVE('',#571,#572,#681,.T.);
#463=EDGE_CURVE('',#572,#573,#682,.T.);
#464=EDGE_CURVE('',#573,#574,#683,.T.);
#465=EDGE_CURVE('',#574,#568,#684,.T.);
#466=EDGE_CURVE('',#558,#570,#685,.T.);
#467=EDGE_CURVE('',#557,#569,#686,.T.);
#468=EDGE_CURVE('',#559,#568,#687,.T.);
#469=EDGE_CURVE('',#560,#574,#688,.T.);
#470=EDGE_CURVE('',#561,#573,#689,.T.);
#471=EDGE_CURVE('',#562,#572,#690,.T.);
#472=EDGE_CURVE('',#563,#571,#691,.T.);
#473=EDGE_CURVE('',#575,#575,#62,.F.);
#474=EDGE_CURVE('',#576,#576,#63,.F.);
#475=EDGE_CURVE('',#577,#577,#64,.F.);
#476=EDGE_CURVE('',#578,#578,#65,.F.);
#477=EDGE_CURVE('',#580,#580,#66,.T.);
#478=EDGE_CURVE('',#582,#582,#67,.T.);
#479=EDGE_CURVE('',#584,#584,#68,.T.);
#480=EDGE_CURVE('',#586,#586,#69,.T.);
#481=VERTEX_POINT('',#1545);
#482=VERTEX_POINT('',#1546);
#483=VERTEX_POINT('',#1548);
#484=VERTEX_POINT('',#1550);
#485=VERTEX_POINT('',#1554);
#486=VERTEX_POINT('',#1556);
#487=VERTEX_POINT('',#1560);
#488=VERTEX_POINT('',#1562);
#489=VERTEX_POINT('',#1569);
#490=VERTEX_POINT('',#1570);
#491=VERTEX_POINT('',#1572);
#492=VERTEX_POINT('',#1574);
#493=VERTEX_POINT('',#1578);
#494=VERTEX_POINT('',#1580);
#495=VERTEX_POINT('',#1584);
#496=VERTEX_POINT('',#1585);
#497=VERTEX_POINT('',#1587);
#498=VERTEX_POINT('',#1589);
#499=VERTEX_POINT('',#1593);
#500=VERTEX_POINT('',#1595);
#501=VERTEX_POINT('',#1599);
#502=VERTEX_POINT('',#1601);
#503=VERTEX_POINT('',#1608);
#504=VERTEX_POINT('',#1610);
#505=VERTEX_POINT('',#1612);
#506=VERTEX_POINT('',#1614);
#507=VERTEX_POINT('',#1616);
#508=VERTEX_POINT('',#1618);
#509=VERTEX_POINT('',#1620);
#510=VERTEX_POINT('',#1622);
#511=VERTEX_POINT('',#1624);
#512=VERTEX_POINT('',#1628);
#513=VERTEX_POINT('',#1632);
#514=VERTEX_POINT('',#1633);
#515=VERTEX_POINT('',#1635);
#516=VERTEX_POINT('',#1637);
#517=VERTEX_POINT('',#1641);
#518=VERTEX_POINT('',#1643);
#519=VERTEX_POINT('',#1647);
#520=VERTEX_POINT('',#1649);
#521=VERTEX_POINT('',#1656);
#522=VERTEX_POINT('',#1658);
#523=VERTEX_POINT('',#1660);
#524=VERTEX_POINT('',#1662);
#525=VERTEX_POINT('',#1664);
#526=VERTEX_POINT('',#1666);
#527=VERTEX_POINT('',#1668);
#528=VERTEX_POINT('',#1670);
#529=VERTEX_POINT('',#1674);
#530=VERTEX_POINT('',#1675);
#531=VERTEX_POINT('',#1680);
#532=VERTEX_POINT('',#1682);
#533=VERTEX_POINT('',#1691);
#534=VERTEX_POINT('',#1693);
#535=VERTEX_POINT('',#1695);
#536=VERTEX_POINT('',#1697);
#537=VERTEX_POINT('',#1709);
#538=VERTEX_POINT('',#1710);
#539=VERTEX_POINT('',#1712);
#540=VERTEX_POINT('',#1714);
#541=VERTEX_POINT('',#1718);
#542=VERTEX_POINT('',#1719);
#543=VERTEX_POINT('',#1724);
#544=VERTEX_POINT('',#1725);
#545=VERTEX_POINT('',#1733);
#546=VERTEX_POINT('',#1734);
#547=VERTEX_POINT('',#1736);
#548=VERTEX_POINT('',#1738);
#549=VERTEX_POINT('',#1742);
#550=VERTEX_POINT('',#1744);
#551=VERTEX_POINT('',#1748);
#552=VERTEX_POINT('',#1750);
#553=VERTEX_POINT('',#1757);
#554=VERTEX_POINT('',#1759);
#555=VERTEX_POINT('',#1761);
#556=VERTEX_POINT('',#1763);
#557=VERTEX_POINT('',#1765);
#558=VERTEX_POINT('',#1766);
#559=VERTEX_POINT('',#1768);
#560=VERTEX_POINT('',#1770);
#561=VERTEX_POINT('',#1772);
#562=VERTEX_POINT('',#1774);
#563=VERTEX_POINT('',#1776);
#564=VERTEX_POINT('',#1780);
#565=VERTEX_POINT('',#1782);
#566=VERTEX_POINT('',#1784);
#567=VERTEX_POINT('',#1786);
#568=VERTEX_POINT('',#1788);
#569=VERTEX_POINT('',#1789);
#570=VERTEX_POINT('',#1791);
#571=VERTEX_POINT('',#1793);
#572=VERTEX_POINT('',#1795);
#573=VERTEX_POINT('',#1797);
#574=VERTEX_POINT('',#1799);
#575=VERTEX_POINT('',#1821);
#576=VERTEX_POINT('',#1823);
#577=VERTEX_POINT('',#1825);
#578=VERTEX_POINT('',#1827);
#579=VERTEX_POINT('',#1829);
#580=VERTEX_POINT('',#1831);
#581=VERTEX_POINT('',#1834);
#582=VERTEX_POINT('',#1836);
#583=VERTEX_POINT('',#1839);
#584=VERTEX_POINT('',#1841);
#585=VERTEX_POINT('',#1844);
#586=VERTEX_POINT('',#1846);
#587=LINE('',#1544,#692);
#588=LINE('',#1547,#693);
#589=LINE('',#1549,#694);
#590=LINE('',#1551,#695);
#591=LINE('',#1553,#696);
#592=LINE('',#1555,#697);
#593=LINE('',#1557,#698);
#594=LINE('',#1559,#699);
#595=LINE('',#1561,#700);
#596=LINE('',#1563,#701);
#597=LINE('',#1565,#702);
#598=LINE('',#1566,#703);
#599=LINE('',#1568,#704);
#600=LINE('',#1571,#705);
#601=LINE('',#1573,#706);
#602=LINE('',#1575,#707);
#603=LINE('',#1577,#708);
#604=LINE('',#1579,#709);
#605=LINE('',#1581,#710);
#606=LINE('',#1583,#711);
#607=LINE('',#1586,#712);
#608=LINE('',#1588,#713);
#609=LINE('',#1590,#714);
#610=LINE('',#1592,#715);
#611=LINE('',#1594,#716);
#612=LINE('',#1596,#717);
#613=LINE('',#1598,#718);
#614=LINE('',#1600,#719);
#615=LINE('',#1602,#720);
#616=LINE('',#1604,#721);
#617=LINE('',#1605,#722);
#618=LINE('',#1623,#723);
#619=LINE('',#1625,#724);
#620=LINE('',#1627,#725);
#621=LINE('',#1629,#726);
#622=LINE('',#1631,#727);
#623=LINE('',#1634,#728);
#624=LINE('',#1636,#729);
#625=LINE('',#1638,#730);
#626=LINE('',#1640,#731);
#627=LINE('',#1642,#732);
#628=LINE('',#1644,#733);
#629=LINE('',#1646,#734);
#630=LINE('',#1648,#735);
#631=LINE('',#1650,#736);
#632=LINE('',#1652,#737);
#633=LINE('',#1653,#738);
#634=LINE('',#1663,#739);
#635=LINE('',#1665,#740);
#636=LINE('',#1667,#741);
#637=LINE('',#1669,#742);
#638=LINE('',#1671,#743);
#639=LINE('',#1673,#744);
#640=LINE('',#1676,#745);
#641=LINE('',#1677,#746);
#642=LINE('',#1679,#747);
#643=LINE('',#1681,#748);
#644=LINE('',#1683,#749);
#645=LINE('',#1685,#750);
#646=LINE('',#1687,#751);
#647=LINE('',#1708,#752);
#648=LINE('',#1711,#753);
#649=LINE('',#1713,#754);
#650=LINE('',#1715,#755);
#651=LINE('',#1717,#756);
#652=LINE('',#1720,#757);
#653=LINE('',#1721,#758);
#654=LINE('',#1723,#759);
#655=LINE('',#1726,#760);
#656=LINE('',#1727,#761);
#657=LINE('',#1729,#762);
#658=LINE('',#1730,#763);
#659=LINE('',#1732,#764);
#660=LINE('',#1735,#765);
#661=LINE('',#1737,#766);
#662=LINE('',#1739,#767);
#663=LINE('',#1741,#768);
#664=LINE('',#1743,#769);
#665=LINE('',#1745,#770);
#666=LINE('',#1747,#771);
#667=LINE('',#1749,#772);
#668=LINE('',#1751,#773);
#669=LINE('',#1753,#774);
#670=LINE('',#1754,#775);
#671=LINE('',#1764,#776);
#672=LINE('',#1767,#777);
#673=LINE('',#1769,#778);
#674=LINE('',#1771,#779);
#675=LINE('',#1773,#780);
#676=LINE('',#1775,#781);
#677=LINE('',#1777,#782);
#678=LINE('',#1787,#783);
#679=LINE('',#1790,#784);
#680=LINE('',#1792,#785);
#681=LINE('',#1794,#786);
#682=LINE('',#1796,#787);
#683=LINE('',#1798,#788);
#684=LINE('',#1800,#789);
#685=LINE('',#1802,#790);
#686=LINE('',#1803,#791);
#687=LINE('',#1805,#792);
#688=LINE('',#1807,#793);
#689=LINE('',#1809,#794);
#690=LINE('',#1811,#795);
#691=LINE('',#1813,#796);
#692=VECTOR('',#1251,1.);
#693=VECTOR('',#1252,1.);
#694=VECTOR('',#1253,1.);
#695=VECTOR('',#1254,1.);
#696=VECTOR('',#1257,1.);
#697=VECTOR('',#1258,1.);
#698=VECTOR('',#1259,1.);
#699=VECTOR('',#1262,1.);
#700=VECTOR('',#1263,1.);
#701=VECTOR('',#1264,1.);
#702=VECTOR('',#1267,1.);
#703=VECTOR('',#1268,1.);
#704=VECTOR('',#1271,1.);
#705=VECTOR('',#1272,1.);
#706=VECTOR('',#1273,1.);
#707=VECTOR('',#1274,1.);
#708=VECTOR('',#1277,1.);
#709=VECTOR('',#1278,1.);
#710=VECTOR('',#1279,1.);
#711=VECTOR('',#1282,1.);
#712=VECTOR('',#1283,1.);
#713=VECTOR('',#1284,1.);
#714=VECTOR('',#1285,1.);
#715=VECTOR('',#1288,1.);
#716=VECTOR('',#1289,1.);
#717=VECTOR('',#1290,1.);
#718=VECTOR('',#1293,1.);
#719=VECTOR('',#1294,1.);
#720=VECTOR('',#1295,1.);
#721=VECTOR('',#1298,1.);
#722=VECTOR('',#1299,1.);
#723=VECTOR('',#1318,1.);
#724=VECTOR('',#1319,1.);
#725=VECTOR('',#1322,1.);
#726=VECTOR('',#1323,1.);
#727=VECTOR('',#1326,1.);
#728=VECTOR('',#1327,1.);
#729=VECTOR('',#1328,1.);
#730=VECTOR('',#1329,1.);
#731=VECTOR('',#1332,1.);
#732=VECTOR('',#1333,1.);
#733=VECTOR('',#1334,1.);
#734=VECTOR('',#1337,1.);
#735=VECTOR('',#1338,1.);
#736=VECTOR('',#1339,1.);
#737=VECTOR('',#1342,1.);
#738=VECTOR('',#1343,1.);
#739=VECTOR('',#1354,1.);
#740=VECTOR('',#1355,1.);
#741=VECTOR('',#1356,1.);
#742=VECTOR('',#1357,1.);
#743=VECTOR('',#1358,1.);
#744=VECTOR('',#1361,1.);
#745=VECTOR('',#1362,1.);
#746=VECTOR('',#1363,1.);
#747=VECTOR('',#1366,1.);
#748=VECTOR('',#1367,1.);
#749=VECTOR('',#1368,1.);
#750=VECTOR('',#1371,1.);
#751=VECTOR('',#1374,1.);
#752=VECTOR('',#1407,1.);
#753=VECTOR('',#1408,1.);
#754=VECTOR('',#1409,1.);
#755=VECTOR('',#1410,1.);
#756=VECTOR('',#1413,1.);
#757=VECTOR('',#1414,1.);
#758=VECTOR('',#1415,1.);
#759=VECTOR('',#1418,1.);
#760=VECTOR('',#1419,1.);
#761=VECTOR('',#1420,1.);
#762=VECTOR('',#1423,1.);
#763=VECTOR('',#1424,1.);
#764=VECTOR('',#1427,1.);
#765=VECTOR('',#1428,1.);
#766=VECTOR('',#1429,1.);
#767=VECTOR('',#1430,1.);
#768=VECTOR('',#1433,1.);
#769=VECTOR('',#1434,1.);
#770=VECTOR('',#1435,1.);
#771=VECTOR('',#1438,1.);
#772=VECTOR('',#1439,1.);
#773=VECTOR('',#1440,1.);
#774=VECTOR('',#1443,1.);
#775=VECTOR('',#1444,1.);
#776=VECTOR('',#1455,1.);
#777=VECTOR('',#1456,1.);
#778=VECTOR('',#1457,1.);
#779=VECTOR('',#1458,1.);
#780=VECTOR('',#1459,1.);
#781=VECTOR('',#1460,1.);
#782=VECTOR('',#1461,1.);
#783=VECTOR('',#1472,1.);
#784=VECTOR('',#1473,1.);
#785=VECTOR('',#1474,1.);
#786=VECTOR('',#1475,1.);
#787=VECTOR('',#1476,1.);
#788=VECTOR('',#1477,1.);
#789=VECTOR('',#1478,1.);
#790=VECTOR('',#1481,1.);
#791=VECTOR('',#1482,1.);
#792=VECTOR('',#1485,1.);
#793=VECTOR('',#1488,1.);
#794=VECTOR('',#1491,1.);
#795=VECTOR('',#1494,1.);
#796=VECTOR('',#1497,1.);
#797=EDGE_LOOP('',(#70,#71,#72,#73));
#798=EDGE_LOOP('',(#74,#75,#76,#77));
#799=EDGE_LOOP('',(#78,#79,#80,#81));
#800=EDGE_LOOP('',(#82,#83,#84,#85));
#801=EDGE_LOOP('',(#86,#87,#88,#89));
#802=EDGE_LOOP('',(#90,#91,#92,#93));
#803=EDGE_LOOP('',(#94,#95,#96,#97));
#804=EDGE_LOOP('',(#98,#99,#100,#101));
#805=EDGE_LOOP('',(#102,#103,#104,#105));
#806=EDGE_LOOP('',(#106,#107,#108,#109));
#807=EDGE_LOOP('',(#110));
#808=EDGE_LOOP('',(#111));
#809=EDGE_LOOP('',(#112));
#810=EDGE_LOOP('',(#113));
#811=EDGE_LOOP('',(#114));
#812=EDGE_LOOP('',(#115));
#813=EDGE_LOOP('',(#116));
#814=EDGE_LOOP('',(#117));
#815=EDGE_LOOP('',(#118,#119,#120,#121));
#816=EDGE_LOOP('',(#122,#123,#124,#125));
#817=EDGE_LOOP('',(#126,#127,#128,#129));
#818=EDGE_LOOP('',(#130,#131,#132,#133));
#819=EDGE_LOOP('',(#134,#135,#136,#137));
#820=EDGE_LOOP('',(#138,#139,#140,#141));
#821=EDGE_LOOP('',(#142,#143,#144,#145));
#822=EDGE_LOOP('',(#146,#147,#148,#149));
#823=EDGE_LOOP('',(#150));
#824=EDGE_LOOP('',(#151));
#825=EDGE_LOOP('',(#152));
#826=EDGE_LOOP('',(#153));
#827=EDGE_LOOP('',(#154,#155,#156,#157,#158,#159,#160,#161));
#828=EDGE_LOOP('',(#162,#163,#164,#165));
#829=EDGE_LOOP('',(#166,#167,#168,#169));
#830=EDGE_LOOP('',(#170,#171,#172,#173));
#831=EDGE_LOOP('',(#174,#175,#176,#177));
#832=EDGE_LOOP('',(#178,#179,#180,#181));
#833=EDGE_LOOP('',(#182,#183,#184,#185,#186,#187,#188,#189));
#834=EDGE_LOOP('',(#190,#191,#192,#193));
#835=EDGE_LOOP('',(#194));
#836=EDGE_LOOP('',(#195));
#837=EDGE_LOOP('',(#196));
#838=EDGE_LOOP('',(#197));
#839=EDGE_LOOP('',(#198,#199,#200,#201));
#840=EDGE_LOOP('',(#202,#203,#204,#205));
#841=EDGE_LOOP('',(#206));
#842=EDGE_LOOP('',(#207));
#843=EDGE_LOOP('',(#208));
#844=EDGE_LOOP('',(#209));
#845=EDGE_LOOP('',(#210));
#846=EDGE_LOOP('',(#211));
#847=EDGE_LOOP('',(#212));
#848=EDGE_LOOP('',(#213));
#849=EDGE_LOOP('',(#214));
#850=EDGE_LOOP('',(#215));
#851=EDGE_LOOP('',(#216));
#852=EDGE_LOOP('',(#217));
#853=EDGE_LOOP('',(#218));
#854=EDGE_LOOP('',(#219));
#855=EDGE_LOOP('',(#220));
#856=EDGE_LOOP('',(#221));
#857=EDGE_LOOP('',(#222,#223,#224,#225));
#858=EDGE_LOOP('',(#226,#227,#228,#229));
#859=EDGE_LOOP('',(#230,#231,#232,#233));
#860=EDGE_LOOP('',(#234,#235,#236,#237));
#861=EDGE_LOOP('',(#238,#239,#240,#241));
#862=EDGE_LOOP('',(#242,#243,#244,#245));
#863=EDGE_LOOP('',(#246,#247,#248,#249));
#864=EDGE_LOOP('',(#250,#251,#252,#253));
#865=EDGE_LOOP('',(#254));
#866=EDGE_LOOP('',(#255));
#867=EDGE_LOOP('',(#256));
#868=EDGE_LOOP('',(#257));
#869=EDGE_LOOP('',(#258,#259,#260,#261));
#870=EDGE_LOOP('',(#262,#263,#264,#265,#266,#267,#268));
#871=EDGE_LOOP('',(#269));
#872=EDGE_LOOP('',(#270));
#873=EDGE_LOOP('',(#271));
#874=EDGE_LOOP('',(#272));
#875=EDGE_LOOP('',(#273,#274,#275,#276));
#876=EDGE_LOOP('',(#277,#278,#279,#280,#281,#282,#283));
#877=EDGE_LOOP('',(#284,#285,#286,#287));
#878=EDGE_LOOP('',(#288,#289,#290,#291));
#879=EDGE_LOOP('',(#292,#293,#294,#295));
#880=EDGE_LOOP('',(#296,#297,#298,#299));
#881=EDGE_LOOP('',(#300,#301,#302,#303));
#882=EDGE_LOOP('',(#304,#305,#306,#307));
#883=EDGE_LOOP('',(#308,#309,#310,#311));
#884=EDGE_LOOP('',(#312));
#885=EDGE_LOOP('',(#313));
#886=EDGE_LOOP('',(#314));
#887=EDGE_LOOP('',(#315));
#888=EDGE_LOOP('',(#316));
#889=EDGE_LOOP('',(#317));
#890=EDGE_LOOP('',(#318));
#891=EDGE_LOOP('',(#319));
#892=EDGE_LOOP('',(#320));
#893=EDGE_LOOP('',(#321));
#894=EDGE_LOOP('',(#322));
#895=EDGE_LOOP('',(#323));
#896=EDGE_LOOP('',(#324,#325,#326,#327));
#897=EDGE_LOOP('',(#328,#329,#330,#331));
#898=EDGE_LOOP('',(#332));
#899=EDGE_LOOP('',(#333));
#900=EDGE_LOOP('',(#334));
#901=EDGE_LOOP('',(#335));
#902=EDGE_LOOP('',(#336));
#903=EDGE_LOOP('',(#337));
#904=EDGE_LOOP('',(#338));
#905=EDGE_LOOP('',(#339));
#906=EDGE_LOOP('',(#340));
#907=EDGE_LOOP('',(#341));
#908=EDGE_LOOP('',(#342));
#909=EDGE_LOOP('',(#343));
#910=FACE_BOUND('',#797,.T.);
#911=FACE_BOUND('',#798,.T.);
#912=FACE_BOUND('',#799,.T.);
#913=FACE_BOUND('',#800,.T.);
#914=FACE_BOUND('',#801,.T.);
#915=FACE_BOUND('',#802,.T.);
#916=FACE_BOUND('',#803,.T.);
#917=FACE_BOUND('',#804,.T.);
#918=FACE_BOUND('',#805,.T.);
#919=FACE_BOUND('',#806,.T.);
#920=FACE_BOUND('',#807,.T.);
#921=FACE_BOUND('',#808,.T.);
#922=FACE_BOUND('',#809,.T.);
#923=FACE_BOUND('',#810,.T.);
#924=FACE_BOUND('',#811,.T.);
#925=FACE_BOUND('',#812,.T.);
#926=FACE_BOUND('',#813,.T.);
#927=FACE_BOUND('',#814,.T.);
#928=FACE_BOUND('',#815,.T.);
#929=FACE_BOUND('',#816,.T.);
#930=FACE_BOUND('',#817,.T.);
#931=FACE_BOUND('',#818,.T.);
#932=FACE_BOUND('',#819,.T.);
#933=FACE_BOUND('',#820,.T.);
#934=FACE_BOUND('',#821,.T.);
#935=FACE_BOUND('',#822,.T.);
#936=FACE_BOUND('',#823,.T.);
#937=FACE_BOUND('',#824,.T.);
#938=FACE_BOUND('',#825,.T.);
#939=FACE_BOUND('',#826,.T.);
#940=FACE_BOUND('',#827,.T.);
#941=FACE_BOUND('',#828,.T.);
#942=FACE_BOUND('',#829,.T.);
#943=FACE_BOUND('',#830,.T.);
#944=FACE_BOUND('',#831,.T.);
#945=FACE_BOUND('',#832,.T.);
#946=FACE_BOUND('',#833,.T.);
#947=FACE_BOUND('',#834,.T.);
#948=FACE_BOUND('',#835,.T.);
#949=FACE_BOUND('',#836,.T.);
#950=FACE_BOUND('',#837,.T.);
#951=FACE_BOUND('',#838,.T.);
#952=FACE_BOUND('',#839,.T.);
#953=FACE_BOUND('',#840,.T.);
#954=FACE_BOUND('',#841,.T.);
#955=FACE_BOUND('',#842,.T.);
#956=FACE_BOUND('',#843,.T.);
#957=FACE_BOUND('',#844,.T.);
#958=FACE_BOUND('',#845,.T.);
#959=FACE_BOUND('',#846,.T.);
#960=FACE_BOUND('',#847,.T.);
#961=FACE_BOUND('',#848,.T.);
#962=FACE_BOUND('',#849,.T.);
#963=FACE_BOUND('',#850,.T.);
#964=FACE_BOUND('',#851,.T.);
#965=FACE_BOUND('',#852,.T.);
#966=FACE_BOUND('',#853,.T.);
#967=FACE_BOUND('',#854,.T.);
#968=FACE_BOUND('',#855,.T.);
#969=FACE_BOUND('',#856,.T.);
#970=FACE_BOUND('',#857,.T.);
#971=FACE_BOUND('',#858,.T.);
#972=FACE_BOUND('',#859,.T.);
#973=FACE_BOUND('',#860,.T.);
#974=FACE_BOUND('',#861,.T.);
#975=FACE_BOUND('',#862,.T.);
#976=FACE_BOUND('',#863,.T.);
#977=FACE_BOUND('',#864,.T.);
#978=FACE_BOUND('',#865,.T.);
#979=FACE_BOUND('',#866,.T.);
#980=FACE_BOUND('',#867,.T.);
#981=FACE_BOUND('',#868,.T.);
#982=FACE_BOUND('',#869,.T.);
#983=FACE_BOUND('',#870,.T.);
#984=FACE_BOUND('',#871,.T.);
#985=FACE_BOUND('',#872,.T.);
#986=FACE_BOUND('',#873,.T.);
#987=FACE_BOUND('',#874,.T.);
#988=FACE_BOUND('',#875,.T.);
#989=FACE_BOUND('',#876,.T.);
#990=FACE_BOUND('',#877,.T.);
#991=FACE_BOUND('',#878,.T.);
#992=FACE_BOUND('',#879,.T.);
#993=FACE_BOUND('',#880,.T.);
#994=FACE_BOUND('',#881,.T.);
#995=FACE_BOUND('',#882,.T.);
#996=FACE_BOUND('',#883,.T.);
#997=FACE_BOUND('',#884,.T.);
#998=FACE_BOUND('',#885,.T.);
#999=FACE_BOUND('',#886,.T.);
#1000=FACE_BOUND('',#887,.T.);
#1001=FACE_BOUND('',#888,.T.);
#1002=FACE_BOUND('',#889,.T.);
#1003=FACE_BOUND('',#890,.T.);
#1004=FACE_BOUND('',#891,.T.);
#1005=FACE_BOUND('',#892,.T.);
#1006=FACE_BOUND('',#893,.T.);
#1007=FACE_BOUND('',#894,.T.);
#1008=FACE_BOUND('',#895,.T.);
#1009=FACE_BOUND('',#896,.T.);
#1010=FACE_BOUND('',#897,.T.);
#1011=FACE_BOUND('',#10,.T.);
#1012=FACE_BOUND('',#898,.T.);
#1013=FACE_BOUND('',#899,.T.);
#1014=FACE_BOUND('',#900,.T.);
#1015=FACE_BOUND('',#11,.T.);
#1016=FACE_BOUND('',#901,.T.);
#1017=FACE_BOUND('',#902,.T.);
#1018=FACE_BOUND('',#903,.T.);
#1019=FACE_BOUND('',#12,.T.);
#1020=FACE_BOUND('',#904,.T.);
#1021=FACE_BOUND('',#905,.T.);
#1022=FACE_BOUND('',#906,.T.);
#1023=FACE_BOUND('',#13,.T.);
#1024=FACE_BOUND('',#907,.T.);
#1025=FACE_BOUND('',#908,.T.);
#1026=FACE_BOUND('',#909,.T.);
#1027=PLANE('',#1153);
#1028=PLANE('',#1154);
#1029=PLANE('',#1155);
#1030=PLANE('',#1156);
#1031=PLANE('',#1157);
#1032=PLANE('',#1158);
#1033=PLANE('',#1159);
#1034=PLANE('',#1160);
#1035=PLANE('',#1161);
#1036=PLANE('',#1162);
#1037=PLANE('',#1163);
#1038=PLANE('',#1172);
#1039=PLANE('',#1173);
#1040=PLANE('',#1174);
#1041=PLANE('',#1175);
#1042=PLANE('',#1176);
#1043=PLANE('',#1177);
#1044=PLANE('',#1182);
#1045=PLANE('',#1183);
#1046=PLANE('',#1184);
#1047=PLANE('',#1185);
#1048=PLANE('',#1186);
#1049=PLANE('',#1187);
#1050=PLANE('',#1201);
#1051=PLANE('',#1202);
#1052=PLANE('',#1203);
#1053=PLANE('',#1204);
#1054=PLANE('',#1205);
#1055=PLANE('',#1206);
#1056=PLANE('',#1207);
#1057=PLANE('',#1208);
#1058=PLANE('',#1209);
#1059=PLANE('',#1214);
#1060=PLANE('',#1219);
#1061=PLANE('',#1220);
#1062=PLANE('',#1221);
#1063=PLANE('',#1222);
#1064=PLANE('',#1223);
#1065=PLANE('',#1224);
#1066=PLANE('',#1225);
#1067=PLANE('',#1230);
#1068=ADVANCED_FACE('',(#910),#1027,.T.);
#1069=ADVANCED_FACE('',(#911),#1028,.F.);
#1070=ADVANCED_FACE('',(#912),#1029,.F.);
#1071=ADVANCED_FACE('',(#913),#1030,.T.);
#1072=ADVANCED_FACE('',(#914),#1031,.F.);
#1073=ADVANCED_FACE('',(#915),#1032,.F.);
#1074=ADVANCED_FACE('',(#916),#1033,.T.);
#1075=ADVANCED_FACE('',(#917),#1034,.T.);
#1076=ADVANCED_FACE('',(#918),#1035,.T.);
#1077=ADVANCED_FACE('',(#919),#1036,.T.);
#1078=ADVANCED_FACE('',(#920,#921,#922,#923,#924,#925,#926,#927,#928,#929,
#930),#1037,.T.);
#1079=ADVANCED_FACE('',(#931),#1038,.T.);
#1080=ADVANCED_FACE('',(#932),#1039,.F.);
#1081=ADVANCED_FACE('',(#933),#1040,.F.);
#1082=ADVANCED_FACE('',(#934),#1041,.F.);
#1083=ADVANCED_FACE('',(#935),#1042,.F.);
#1084=ADVANCED_FACE('',(#936,#937,#938,#939,#940,#941,#942),#1043,.F.);
#1085=ADVANCED_FACE('',(#943),#1044,.T.);
#1086=ADVANCED_FACE('',(#944),#1045,.F.);
#1087=ADVANCED_FACE('',(#945),#1046,.F.);
#1088=ADVANCED_FACE('',(#946),#1047,.T.);
#1089=ADVANCED_FACE('',(#947),#1048,.F.);
#1090=ADVANCED_FACE('',(#948,#949,#950,#951,#952,#953),#1049,.F.);
#1091=ADVANCED_FACE('',(#954,#955),#22,.F.);
#1092=ADVANCED_FACE('',(#956,#957),#23,.F.);
#1093=ADVANCED_FACE('',(#958,#959),#24,.F.);
#1094=ADVANCED_FACE('',(#960,#961),#25,.F.);
#1095=ADVANCED_FACE('',(#962,#963),#26,.F.);
#1096=ADVANCED_FACE('',(#964,#965),#27,.F.);
#1097=ADVANCED_FACE('',(#966,#967),#28,.F.);
#1098=ADVANCED_FACE('',(#968,#969),#29,.F.);
#1099=ADVANCED_FACE('',(#970),#1050,.T.);
#1100=ADVANCED_FACE('',(#971),#1051,.T.);
#1101=ADVANCED_FACE('',(#972),#1052,.T.);
#1102=ADVANCED_FACE('',(#973),#1053,.T.);
#1103=ADVANCED_FACE('',(#974),#1054,.F.);
#1104=ADVANCED_FACE('',(#975),#1055,.F.);
#1105=ADVANCED_FACE('',(#976),#1056,.F.);
#1106=ADVANCED_FACE('',(#977),#1057,.F.);
#1107=ADVANCED_FACE('',(#978,#979,#980,#981,#982,#983),#1058,.F.);
#1108=ADVANCED_FACE('',(#984,#985,#986,#987,#988,#989),#1059,.T.);
#1109=ADVANCED_FACE('',(#990),#1060,.T.);
#1110=ADVANCED_FACE('',(#991),#1061,.T.);
#1111=ADVANCED_FACE('',(#992),#1062,.T.);
#1112=ADVANCED_FACE('',(#993),#1063,.T.);
#1113=ADVANCED_FACE('',(#994),#1064,.T.);
#1114=ADVANCED_FACE('',(#995),#1065,.T.);
#1115=ADVANCED_FACE('',(#996),#1066,.T.);
#1116=ADVANCED_FACE('',(#997,#998),#30,.F.);
#1117=ADVANCED_FACE('',(#999,#1000),#31,.F.);
#1118=ADVANCED_FACE('',(#1001,#1002),#32,.F.);
#1119=ADVANCED_FACE('',(#1003,#1004),#33,.F.);
#1120=ADVANCED_FACE('',(#1005,#1006,#1007,#1008,#1009,#1010),#1067,.T.);
#1121=ADVANCED_FACE('',(#1011,#1012),#14,.F.);
#1122=ADVANCED_FACE('',(#1013,#1014),#34,.F.);
#1123=ADVANCED_FACE('',(#1015,#1016),#15,.F.);
#1124=ADVANCED_FACE('',(#1017,#1018),#35,.F.);
#1125=ADVANCED_FACE('',(#1019,#1020),#16,.F.);
#1126=ADVANCED_FACE('',(#1021,#1022),#36,.F.);
#1127=ADVANCED_FACE('',(#1023,#1024),#17,.F.);
#1128=ADVANCED_FACE('',(#1025,#1026),#37,.F.);
#1129=CLOSED_SHELL('',(#1068,#1069,#1070,#1071,#1072,#1073,#1074,#1075,
#1076,#1077,#1078,#1079,#1080,#1081,#1082,#1083,#1084,#1085,#1086,#1087,
#1088,#1089,#1090,#1091,#1092,#1093,#1094,#1095,#1096,#1097,#1098));
#1130=CLOSED_SHELL('',(#1099,#1100,#1101,#1102,#1103,#1104,#1105,#1106,
#1107,#1108,#1109,#1110,#1111,#1112,#1113,#1114,#1115,#1116,#1117,#1118,
#1119,#1120,#1121,#1122,#1123,#1124,#1125,#1126,#1127,#1128));
#1131=STYLED_ITEM('',(#1133),#1146);
#1132=STYLED_ITEM('',(#1134),#1147);
#1133=PRESENTATION_STYLE_ASSIGNMENT((#1135));
#1134=PRESENTATION_STYLE_ASSIGNMENT((#1136));
#1135=SURFACE_STYLE_USAGE(.BOTH.,#1137);
#1136=SURFACE_STYLE_USAGE(.BOTH.,#1138);
#1137=SURFACE_SIDE_STYLE('',(#1139));
#1138=SURFACE_SIDE_STYLE('',(#1140));
#1139=SURFACE_STYLE_FILL_AREA(#1141);
#1140=SURFACE_STYLE_FILL_AREA(#1142);
#1141=FILL_AREA_STYLE('',(#1143));
#1142=FILL_AREA_STYLE('',(#1144));
#1143=FILL_AREA_STYLE_COLOUR('',#1145);
#1144=FILL_AREA_STYLE_COLOUR('',#1145);
#1145=COLOUR_RGB('',0.615686274509804,0.811764705882353,0.929411764705882);
#1146=MANIFOLD_SOLID_BREP('Back',#1129);
#1147=MANIFOLD_SOLID_BREP('Front',#1130);
#1148=SHAPE_DEFINITION_REPRESENTATION(#1860,#1150);
#1149=SHAPE_DEFINITION_REPRESENTATION(#1861,#1151);
#1150=SHAPE_REPRESENTATION('Back',(#1152),#1850);
#1151=SHAPE_REPRESENTATION('Front',(#1200),#1851);
#1152=AXIS2_PLACEMENT_3D('',#1542,#1247,#1248);
#1153=AXIS2_PLACEMENT_3D('',#1543,#1249,#1250);
#1154=AXIS2_PLACEMENT_3D('',#1552,#1255,#1256);
#1155=AXIS2_PLACEMENT_3D('',#1558,#1260,#1261);
#1156=AXIS2_PLACEMENT_3D('',#1564,#1265,#1266);
#1157=AXIS2_PLACEMENT_3D('',#1567,#1269,#1270);
#1158=AXIS2_PLACEMENT_3D('',#1576,#1275,#1276);
#1159=AXIS2_PLACEMENT_3D('',#1582,#1280,#1281);
#1160=AXIS2_PLACEMENT_3D('',#1591,#1286,#1287);
#1161=AXIS2_PLACEMENT_3D('',#1597,#1291,#1292);
#1162=AXIS2_PLACEMENT_3D('',#1603,#1296,#1297);
#1163=AXIS2_PLACEMENT_3D('',#1606,#1300,#1301);
#1164=AXIS2_PLACEMENT_3D('',#1607,#1302,#1303);
#1165=AXIS2_PLACEMENT_3D('',#1609,#1304,#1305);
#1166=AXIS2_PLACEMENT_3D('',#1611,#1306,#1307);
#1167=AXIS2_PLACEMENT_3D('',#1613,#1308,#1309);
#1168=AXIS2_PLACEMENT_3D('',#1615,#1310,#1311);
#1169=AXIS2_PLACEMENT_3D('',#1617,#1312,#1313);
#1170=AXIS2_PLACEMENT_3D('',#1619,#1314,#1315);
#1171=AXIS2_PLACEMENT_3D('',#1621,#1316,#1317);
#1172=AXIS2_PLACEMENT_3D('',#1626,#1320,#1321);
#1173=AXIS2_PLACEMENT_3D('',#1630,#1324,#1325);
#1174=AXIS2_PLACEMENT_3D('',#1639,#1330,#1331);
#1175=AXIS2_PLACEMENT_3D('',#1645,#1335,#1336);
#1176=AXIS2_PLACEMENT_3D('',#1651,#1340,#1341);
#1177=AXIS2_PLACEMENT_3D('',#1654,#1344,#1345);
#1178=AXIS2_PLACEMENT_3D('',#1655,#1346,#1347);
#1179=AXIS2_PLACEMENT_3D('',#1657,#1348,#1349);
#1180=AXIS2_PLACEMENT_3D('',#1659,#1350,#1351);
#1181=AXIS2_PLACEMENT_3D('',#1661,#1352,#1353);
#1182=AXIS2_PLACEMENT_3D('',#1672,#1359,#1360);
#1183=AXIS2_PLACEMENT_3D('',#1678,#1364,#1365);
#1184=AXIS2_PLACEMENT_3D('',#1684,#1369,#1370);
#1185=AXIS2_PLACEMENT_3D('',#1686,#1372,#1373);
#1186=AXIS2_PLACEMENT_3D('',#1688,#1375,#1376);
#1187=AXIS2_PLACEMENT_3D('',#1689,#1377,#1378);
#1188=AXIS2_PLACEMENT_3D('',#1690,#1379,#1380);
#1189=AXIS2_PLACEMENT_3D('',#1692,#1381,#1382);
#1190=AXIS2_PLACEMENT_3D('',#1694,#1383,#1384);
#1191=AXIS2_PLACEMENT_3D('',#1696,#1385,#1386);
#1192=AXIS2_PLACEMENT_3D('',#1698,#1387,#1388);
#1193=AXIS2_PLACEMENT_3D('',#1699,#1389,#1390);
#1194=AXIS2_PLACEMENT_3D('',#1700,#1391,#1392);
#1195=AXIS2_PLACEMENT_3D('',#1701,#1393,#1394);
#1196=AXIS2_PLACEMENT_3D('',#1702,#1395,#1396);
#1197=AXIS2_PLACEMENT_3D('',#1703,#1397,#1398);
#1198=AXIS2_PLACEMENT_3D('',#1704,#1399,#1400);
#1199=AXIS2_PLACEMENT_3D('',#1705,#1401,#1402);
#1200=AXIS2_PLACEMENT_3D('',#1706,#1403,#1404);
#1201=AXIS2_PLACEMENT_3D('',#1707,#1405,#1406);
#1202=AXIS2_PLACEMENT_3D('',#1716,#1411,#1412);
#1203=AXIS2_PLACEMENT_3D('',#1722,#1416,#1417);
#1204=AXIS2_PLACEMENT_3D('',#1728,#1421,#1422);
#1205=AXIS2_PLACEMENT_3D('',#1731,#1425,#1426);
#1206=AXIS2_PLACEMENT_3D('',#1740,#1431,#1432);
#1207=AXIS2_PLACEMENT_3D('',#1746,#1436,#1437);
#1208=AXIS2_PLACEMENT_3D('',#1752,#1441,#1442);
#1209=AXIS2_PLACEMENT_3D('',#1755,#1445,#1446);
#1210=AXIS2_PLACEMENT_3D('',#1756,#1447,#1448);
#1211=AXIS2_PLACEMENT_3D('',#1758,#1449,#1450);
#1212=AXIS2_PLACEMENT_3D('',#1760,#1451,#1452);
#1213=AXIS2_PLACEMENT_3D('',#1762,#1453,#1454);
#1214=AXIS2_PLACEMENT_3D('',#1778,#1462,#1463);
#1215=AXIS2_PLACEMENT_3D('',#1779,#1464,#1465);
#1216=AXIS2_PLACEMENT_3D('',#1781,#1466,#1467);
#1217=AXIS2_PLACEMENT_3D('',#1783,#1468,#1469);
#1218=AXIS2_PLACEMENT_3D('',#1785,#1470,#1471);
#1219=AXIS2_PLACEMENT_3D('',#1801,#1479,#1480);
#1220=AXIS2_PLACEMENT_3D('',#1804,#1483,#1484);
#1221=AXIS2_PLACEMENT_3D('',#1806,#1486,#1487);
#1222=AXIS2_PLACEMENT_3D('',#1808,#1489,#1490);
#1223=AXIS2_PLACEMENT_3D('',#1810,#1492,#1493);
#1224=AXIS2_PLACEMENT_3D('',#1812,#1495,#1496);
#1225=AXIS2_PLACEMENT_3D('',#1814,#1498,#1499);
#1226=AXIS2_PLACEMENT_3D('',#1815,#1500,#1501);
#1227=AXIS2_PLACEMENT_3D('',#1816,#1502,#1503);
#1228=AXIS2_PLACEMENT_3D('',#1817,#1504,#1505);
#1229=AXIS2_PLACEMENT_3D('',#1818,#1506,#1507);
#1230=AXIS2_PLACEMENT_3D('',#1819,#1508,#1509);
#1231=AXIS2_PLACEMENT_3D('',#1820,#1510,#1511);
#1232=AXIS2_PLACEMENT_3D('',#1822,#1512,#1513);
#1233=AXIS2_PLACEMENT_3D('',#1824,#1514,#1515);
#1234=AXIS2_PLACEMENT_3D('',#1826,#1516,#1517);
#1235=AXIS2_PLACEMENT_3D('',#1828,#1518,#1519);
#1236=AXIS2_PLACEMENT_3D('',#1830,#1520,#1521);
#1237=AXIS2_PLACEMENT_3D('',#1832,#1522,#1523);
#1238=AXIS2_PLACEMENT_3D('',#1833,#1524,#1525);
#1239=AXIS2_PLACEMENT_3D('',#1835,#1526,#1527);
#1240=AXIS2_PLACEMENT_3D('',#1837,#1528,#1529);
#1241=AXIS2_PLACEMENT_3D('',#1838,#1530,#1531);
#1242=AXIS2_PLACEMENT_3D('',#1840,#1532,#1533);
#1243=AXIS2_PLACEMENT_3D('',#1842,#1534,#1535);
#1244=AXIS2_PLACEMENT_3D('',#1843,#1536,#1537);
#1245=AXIS2_PLACEMENT_3D('',#1845,#1538,#1539);
#1246=AXIS2_PLACEMENT_3D('',#1847,#1540,#1541);
#1247=DIRECTION('',(0.,0.,1.));
#1248=DIRECTION('',(1.,0.,0.));
#1249=DIRECTION('',(-1.,-1.53956708492941E-16,-2.08166817117217E-16));
#1250=DIRECTION('',(1.53956708492941E-16,-1.,6.12323399573677E-17));
#1251=DIRECTION('',(1.53956708492941E-16,-1.,6.12323399573677E-17));
#1252=DIRECTION('',(2.08166817117217E-16,-6.12323399573677E-17,-1.));
#1253=DIRECTION('',(-1.53956708492941E-16,1.,-6.12323399573677E-17));
#1254=DIRECTION('',(2.08166817117217E-16,-6.12323399573677E-17,-1.));
#1255=DIRECTION('',(-2.08166817117217E-16,1.,-6.12323399573677E-17));
#1256=DIRECTION('',(-1.,-2.08166817117217E-16,-2.08166817117217E-16));
#1257=DIRECTION('',(-1.,-2.08166817117217E-16,-2.08166817117217E-16));
#1258=DIRECTION('',(2.08166817117217E-16,-6.12323399573677E-17,-1.));
#1259=DIRECTION('',(1.,2.08166817117217E-16,2.08166817117217E-16));
#1260=DIRECTION('',(-1.,-1.53956708492941E-16,-2.08166817117217E-16));
#1261=DIRECTION('',(1.53956708492941E-16,-1.,6.12323399573677E-17));
#1262=DIRECTION('',(1.53956708492941E-16,-1.,6.12323399573677E-17));
#1263=DIRECTION('',(2.08166817117217E-16,-6.12323399573677E-17,-1.));
#1264=DIRECTION('',(-1.53956708492941E-16,1.,-6.12323399573677E-17));
#1265=DIRECTION('',(-2.08166817117217E-16,1.,-6.12323399573677E-17));
#1266=DIRECTION('',(-1.,-2.08166817117217E-16,-2.08166817117217E-16));
#1267=DIRECTION('',(-1.,-2.08166817117217E-16,-2.08166817117217E-16));
#1268=DIRECTION('',(1.,2.08166817117217E-16,2.08166817117217E-16));
#1269=DIRECTION('',(-2.08166817117217E-16,1.,-6.12323399573677E-17));
#1270=DIRECTION('',(-1.,-2.08166817117217E-16,-2.08166817117217E-16));
#1271=DIRECTION('',(2.08166817117217E-16,-6.12323399573677E-17,-1.));
#1272=DIRECTION('',(-1.,-2.08166817117217E-16,-2.08166817117217E-16));
#1273=DIRECTION('',(2.08166817117217E-16,-6.12323399573677E-17,-1.));
#1274=DIRECTION('',(1.,2.08166817117217E-16,2.08166817117217E-16));
#1275=DIRECTION('',(-1.,-2.08166817117217E-16,-2.08166817117217E-16));
#1276=DIRECTION('',(2.08166817117217E-16,-1.,6.12323399573677E-17));
#1277=DIRECTION('',(2.08166817117217E-16,-1.,6.12323399573677E-17));
#1278=DIRECTION('',(2.08166817117217E-16,-6.12323399573677E-17,-1.));
#1279=DIRECTION('',(-2.08166817117217E-16,1.,-6.12323399573677E-17));
#1280=DIRECTION('',(2.08166817117217E-16,-1.,6.12323399573677E-17));
#1281=DIRECTION('',(1.,2.08166817117217E-16,2.08166817117217E-16));
#1282=DIRECTION('',(1.,2.08166817117217E-16,2.08166817117217E-16));
#1283=DIRECTION('',(2.08166817117217E-16,-6.12323399573677E-17,-1.));
#1284=DIRECTION('',(-1.,-2.08166817117217E-16,-2.08166817117217E-16));
#1285=DIRECTION('',(2.08166817117217E-16,-6.12323399573677E-17,-1.));
#1286=DIRECTION('',(1.,4.64210384713607E-17,2.08166817117217E-16));
#1287=DIRECTION('',(-4.64210384713607E-17,1.,-6.12323399573677E-17));
#1288=DIRECTION('',(-4.64210384713607E-17,1.,-6.12323399573677E-17));
#1289=DIRECTION('',(4.64210384713607E-17,-1.,6.12323399573677E-17));
#1290=DIRECTION('',(2.08166817117217E-16,-6.12323399573677E-17,-1.));
#1291=DIRECTION('',(3.57786716920217E-17,1.,-6.12323399573677E-17));
#1292=DIRECTION('',(-1.,3.57786716920216E-17,-2.08166817117217E-16));
#1293=DIRECTION('',(-1.,3.57786716920216E-17,-2.08166817117217E-16));
#1294=DIRECTION('',(1.,-3.57786716920216E-17,2.08166817117217E-16));
#1295=DIRECTION('',(2.08166817117217E-16,-6.12323399573677E-17,-1.));
#1296=DIRECTION('',(-1.,1.15324740174495E-16,-2.08166817117217E-16));
#1297=DIRECTION('',(-1.15324740174495E-16,-1.,6.12323399573677E-17));
#1298=DIRECTION('',(-1.15324740174495E-16,-1.,6.12323399573677E-17));
#1299=DIRECTION('',(1.15324740174495E-16,1.,-6.12323399573677E-17));
#1300=DIRECTION('',(2.08166817117217E-16,-6.12323399573677E-17,-1.));
#1301=DIRECTION('',(1.,2.08166817117217E-16,2.08166817117217E-16));
#1302=DIRECTION('',(-2.08166817117217E-16,6.12323399573677E-17,1.));
#1303=DIRECTION('',(2.08166817117217E-16,-1.,6.12323399573677E-17));
#1304=DIRECTION('',(-2.08166817117217E-16,6.12323399573677E-17,1.));
#1305=DIRECTION('',(2.08166817117217E-16,-1.,6.12323399573677E-17));
#1306=DIRECTION('',(-2.08166817117217E-16,6.12323399573677E-17,1.));
#1307=DIRECTION('',(2.08166817117217E-16,-1.,6.12323399573677E-17));
#1308=DIRECTION('',(-2.08166817117217E-16,6.12323399573677E-17,1.));
#1309=DIRECTION('',(2.08166817117217E-16,-1.,6.12323399573677E-17));
#1310=DIRECTION('',(2.08166817117217E-16,-6.12323399573677E-17,-1.));
#1311=DIRECTION('',(-2.08166817117217E-16,1.,-6.12323399573677E-17));
#1312=DIRECTION('',(2.08166817117217E-16,-6.12323399573677E-17,-1.));
#1313=DIRECTION('',(-2.08166817117217E-16,1.,-6.12323399573677E-17));
#1314=DIRECTION('',(2.08166817117217E-16,-6.12323399573677E-17,-1.));
#1315=DIRECTION('',(-2.08166817117217E-16,1.,-6.12323399573677E-17));
#1316=DIRECTION('',(2.08166817117217E-16,-6.12323399573677E-17,-1.));
#1317=DIRECTION('',(-2.08166817117217E-16,1.,-6.12323399573677E-17));
#1318=DIRECTION('',(1.,2.08166817117217E-16,2.08166817117217E-16));
#1319=DIRECTION('',(-2.08166817117217E-16,1.,-6.12323399573677E-17));
#1320=DIRECTION('',(-1.,-2.08166817117217E-16,-2.08166817117217E-16));
#1321=DIRECTION('',(2.08166817117217E-16,-1.,6.12323399573677E-17));
#1322=DIRECTION('',(2.08166817117217E-16,-1.,6.12323399573677E-17));
#1323=DIRECTION('',(2.08166817117217E-16,-6.12323399573677E-17,-1.));
#1324=DIRECTION('',(2.08166817117217E-16,-1.,6.12323399573677E-17));
#1325=DIRECTION('',(1.,2.08166817117217E-16,2.08166817117217E-16));
#1326=DIRECTION('',(2.08166817117217E-16,-6.12323399573677E-17,-1.));
#1327=DIRECTION('',(1.,2.08166817117217E-16,2.08166817117217E-16));
#1328=DIRECTION('',(2.08166817117217E-16,-6.12323399573677E-17,-1.));
#1329=DIRECTION('',(-1.,-2.08166817117217E-16,-2.08166817117217E-16));
#1330=DIRECTION('',(1.,4.64210384713607E-17,2.08166817117217E-16));
#1331=DIRECTION('',(-4.64210384713607E-17,1.,-6.12323399573677E-17));
#1332=DIRECTION('',(-4.64210384713607E-17,1.,-6.12323399573677E-17));
#1333=DIRECTION('',(2.08166817117217E-16,-6.12323399573677E-17,-1.));
#1334=DIRECTION('',(4.64210384713607E-17,-1.,6.12323399573677E-17));
#1335=DIRECTION('',(3.57786716920217E-17,1.,-6.12323399573677E-17));
#1336=DIRECTION('',(-1.,3.57786716920216E-17,-2.08166817117217E-16));
#1337=DIRECTION('',(-1.,3.57786716920216E-17,-2.08166817117217E-16));
#1338=DIRECTION('',(2.08166817117217E-16,-6.12323399573677E-17,-1.));
#1339=DIRECTION('',(1.,-3.57786716920216E-17,2.08166817117217E-16));
#1340=DIRECTION('',(-1.,1.15324740174495E-16,-2.08166817117217E-16));
#1341=DIRECTION('',(-1.15324740174495E-16,-1.,6.12323399573677E-17));
#1342=DIRECTION('',(-1.15324740174495E-16,-1.,6.12323399573677E-17));
#1343=DIRECTION('',(1.15324740174495E-16,1.,-6.12323399573677E-17));
#1344=DIRECTION('',(2.08166817117217E-16,-6.12323399573677E-17,-1.));
#1345=DIRECTION('',(1.,2.08166817117217E-16,2.08166817117217E-16));
#1346=DIRECTION('',(2.08166817117217E-16,-1.22464679914735E-16,-1.));
#1347=DIRECTION('',(-2.08166817117217E-16,1.,-1.22464679914735E-16));
#1348=DIRECTION('',(2.08166817117217E-16,-1.22464679914735E-16,-1.));
#1349=DIRECTION('',(-2.08166817117217E-16,1.,-1.22464679914735E-16));
#1350=DIRECTION('',(2.08166817117217E-16,-1.22464679914735E-16,-1.));
#1351=DIRECTION('',(-2.08166817117217E-16,1.,-1.22464679914735E-16));
#1352=DIRECTION('',(2.08166817117217E-16,-1.22464679914735E-16,-1.));
#1353=DIRECTION('',(-2.08166817117217E-16,1.,-1.22464679914735E-16));
#1354=DIRECTION('',(-1.,-2.08166817117217E-16,-2.08166817117217E-16));
#1355=DIRECTION('',(-2.08166817117217E-16,1.,-6.12323399573677E-17));
#1356=DIRECTION('',(1.,2.08166817117217E-16,2.08166817117217E-16));
#1357=DIRECTION('',(-2.08166817117217E-16,1.,-6.12323399573677E-17));
#1358=DIRECTION('',(-1.,-2.08166817117217E-16,-2.08166817117217E-16));
#1359=DIRECTION('',(-1.,-2.08166817117217E-16,-2.08166817117217E-16));
#1360=DIRECTION('',(2.08166817117217E-16,-1.,6.12323399573677E-17));
#1361=DIRECTION('',(2.08166817117217E-16,-1.,6.12323399573677E-17));
#1362=DIRECTION('',(-2.08166817117217E-16,6.12323399573677E-17,1.));
#1363=DIRECTION('',(2.08166817117217E-16,-6.12323399573677E-17,-1.));
#1364=DIRECTION('',(-1.,-2.08166817117217E-16,-2.08166817117217E-16));
#1365=DIRECTION('',(2.08166817117217E-16,-1.,6.12323399573677E-17));
#1366=DIRECTION('',(-2.08166817117217E-16,6.12323399573677E-17,1.));
#1367=DIRECTION('',(2.08166817117217E-16,-1.,6.12323399573677E-17));
#1368=DIRECTION('',(2.08166817117217E-16,-6.12323399573677E-17,-1.));
#1369=DIRECTION('',(-2.08166817117217E-16,1.,-6.12323399573677E-17));
#1370=DIRECTION('',(-1.,-2.08166817117217E-16,-2.08166817117217E-16));
#1371=DIRECTION('',(-1.,-2.08166817117217E-16,-2.08166817117217E-16));
#1372=DIRECTION('',(-2.08166817117217E-16,1.,-6.12323399573677E-17));
#1373=DIRECTION('',(-1.,-2.08166817117217E-16,-2.08166817117217E-16));
#1374=DIRECTION('',(-1.,-2.08166817117217E-16,-2.08166817117217E-16));
#1375=DIRECTION('',(2.08166817117217E-16,-6.12323399573677E-17,-1.));
#1376=DIRECTION('',(1.,2.08166817117217E-16,2.08166817117217E-16));
#1377=DIRECTION('',(2.08166817117217E-16,-6.12323399573677E-17,-1.));
#1378=DIRECTION('',(1.,2.08166817117217E-16,2.08166817117217E-16));
#1379=DIRECTION('',(2.08166817117217E-16,-6.12323399573677E-17,-1.));
#1380=DIRECTION('',(-2.08166817117217E-16,1.,-6.12323399573677E-17));
#1381=DIRECTION('',(2.08166817117217E-16,-6.12323399573677E-17,-1.));
#1382=DIRECTION('',(-2.08166817117217E-16,1.,-6.12323399573677E-17));
#1383=DIRECTION('',(2.08166817117217E-16,-6.12323399573677E-17,-1.));
#1384=DIRECTION('',(-2.08166817117217E-16,1.,-6.12323399573677E-17));
#1385=DIRECTION('',(2.08166817117217E-16,-6.12323399573677E-17,-1.));
#1386=DIRECTION('',(-2.08166817117217E-16,1.,-6.12323399573677E-17));
#1387=DIRECTION('',(2.08166817117217E-16,-1.22464679914735E-16,-1.));
#1388=DIRECTION('',(-2.08166817117217E-16,1.,-1.22464679914735E-16));
#1389=DIRECTION('',(2.08166817117217E-16,-1.22464679914735E-16,-1.));
#1390=DIRECTION('',(-2.08166817117217E-16,1.,-1.22464679914735E-16));
#1391=DIRECTION('',(2.08166817117217E-16,-1.22464679914735E-16,-1.));
#1392=DIRECTION('',(-2.08166817117217E-16,1.,-1.22464679914735E-16));
#1393=DIRECTION('',(2.08166817117217E-16,-1.22464679914735E-16,-1.));
#1394=DIRECTION('',(-2.08166817117217E-16,1.,-1.22464679914735E-16));
#1395=DIRECTION('',(-2.08166817117217E-16,6.12323399573677E-17,1.));
#1396=DIRECTION('',(2.08166817117217E-16,-1.,6.12323399573677E-17));
#1397=DIRECTION('',(-2.08166817117217E-16,6.12323399573677E-17,1.));
#1398=DIRECTION('',(2.08166817117217E-16,-1.,6.12323399573677E-17));
#1399=DIRECTION('',(-2.08166817117217E-16,6.12323399573677E-17,1.));
#1400=DIRECTION('',(2.08166817117217E-16,-1.,6.12323399573677E-17));
#1401=DIRECTION('',(-2.08166817117217E-16,6.12323399573677E-17,1.));
#1402=DIRECTION('',(2.08166817117217E-16,-1.,6.12323399573677E-17));
#1403=DIRECTION('',(0.,0.,1.));
#1404=DIRECTION('',(1.,0.,0.));
#1405=DIRECTION('',(-1.,1.15324740174495E-16,-2.08166817117217E-16));
#1406=DIRECTION('',(-1.15324740174495E-16,-1.,6.12323399573677E-17));
#1407=DIRECTION('',(2.08166817117217E-16,-6.12323399573677E-17,-1.));
#1408=DIRECTION('',(-1.15324740174495E-16,-1.,6.12323399573677E-17));
#1409=DIRECTION('',(2.08166817117217E-16,-6.12323399573677E-17,-1.));
#1410=DIRECTION('',(1.15324740174495E-16,1.,-6.12323399573677E-17));
#1411=DIRECTION('',(3.57786716920217E-17,1.,-6.12323399573677E-17));
#1412=DIRECTION('',(-1.,3.57786716920216E-17,-2.08166817117217E-16));
#1413=DIRECTION('',(2.08166817117217E-16,-6.12323399573677E-17,-1.));
#1414=DIRECTION('',(-1.,3.57786716920216E-17,-2.08166817117217E-16));
#1415=DIRECTION('',(1.,-3.57786716920216E-17,2.08166817117217E-16));
#1416=DIRECTION('',(1.,4.64210384713607E-17,2.08166817117217E-16));
#1417=DIRECTION('',(-4.64210384713607E-17,1.,-6.12323399573677E-17));
#1418=DIRECTION('',(2.08166817117217E-16,-6.12323399573677E-17,-1.));
#1419=DIRECTION('',(-4.64210384713607E-17,1.,-6.12323399573677E-17));
#1420=DIRECTION('',(4.64210384713607E-17,-1.,6.12323399573677E-17));
#1421=DIRECTION('',(2.08166817117217E-16,-1.,6.12323399573677E-17));
#1422=DIRECTION('',(1.,2.08166817117217E-16,2.08166817117217E-16));
#1423=DIRECTION('',(1.,2.08166817117217E-16,2.08166817117217E-16));
#1424=DIRECTION('',(-1.,-2.08166817117217E-16,-2.08166817117217E-16));
#1425=DIRECTION('',(-1.,1.15324740174495E-16,-2.08166817117217E-16));
#1426=DIRECTION('',(-1.15324740174495E-16,-1.,6.12323399573677E-17));
#1427=DIRECTION('',(-1.15324740174495E-16,-1.,6.12323399573677E-17));
#1428=DIRECTION('',(2.08166817117217E-16,-6.12323399573677E-17,-1.));
#1429=DIRECTION('',(1.15324740174495E-16,1.,-6.12323399573677E-17));
#1430=DIRECTION('',(2.08166817117217E-16,-6.12323399573677E-17,-1.));
#1431=DIRECTION('',(3.57786716920217E-17,1.,-6.12323399573677E-17));
#1432=DIRECTION('',(-1.,3.57786716920216E-17,-2.08166817117217E-16));
#1433=DIRECTION('',(-1.,3.57786716920216E-17,-2.08166817117217E-16));
#1434=DIRECTION('',(2.08166817117217E-16,-6.12323399573677E-17,-1.));
#1435=DIRECTION('',(1.,-3.57786716920216E-17,2.08166817117217E-16));
#1436=DIRECTION('',(1.,4.64210384713607E-17,2.08166817117217E-16));
#1437=DIRECTION('',(-4.64210384713607E-17,1.,-6.12323399573677E-17));
#1438=DIRECTION('',(-4.64210384713607E-17,1.,-6.12323399573677E-17));
#1439=DIRECTION('',(2.08166817117217E-16,-6.12323399573677E-17,-1.));
#1440=DIRECTION('',(4.64210384713607E-17,-1.,6.12323399573677E-17));
#1441=DIRECTION('',(2.08166817117217E-16,-1.,6.12323399573677E-17));
#1442=DIRECTION('',(1.,2.08166817117217E-16,2.08166817117217E-16));
#1443=DIRECTION('',(1.,2.08166817117217E-16,2.08166817117217E-16));
#1444=DIRECTION('',(-1.,-2.08166817117217E-16,-2.08166817117217E-16));
#1445=DIRECTION('',(2.08166817117217E-16,-6.12323399573677E-17,-1.));
#1446=DIRECTION('',(1.,2.08166817117217E-16,2.08166817117217E-16));
#1447=DIRECTION('',(2.08166817117217E-16,-6.12323399573677E-17,-1.));
#1448=DIRECTION('',(-2.08166817117217E-16,1.,-6.12323399573677E-17));
#1449=DIRECTION('',(2.08166817117217E-16,-6.12323399573677E-17,-1.));
#1450=DIRECTION('',(-2.08166817117217E-16,1.,-6.12323399573677E-17));
#1451=DIRECTION('',(2.08166817117217E-16,-6.12323399573677E-17,-1.));
#1452=DIRECTION('',(-2.08166817117217E-16,1.,-6.12323399573677E-17));
#1453=DIRECTION('',(2.08166817117217E-16,-6.12323399573677E-17,-1.));
#1454=DIRECTION('',(-2.08166817117217E-16,1.,-6.12323399573677E-17));
#1455=DIRECTION('',(-2.08166817117217E-16,1.,-6.12323399573677E-17));
#1456=DIRECTION('',(1.,2.08166817117217E-16,2.08166817117217E-16));
#1457=DIRECTION('',(2.08166817117217E-16,-1.,6.12323399573677E-17));
#1458=DIRECTION('',(0.716455996816971,-0.697632284677967,1.91860021682568E-16));
#1459=DIRECTION('',(-0.697632284677968,-0.716455996816971,-1.01353615058033E-16));
#1460=DIRECTION('',(2.08166817117217E-16,-1.,6.12323399573677E-17));
#1461=DIRECTION('',(-1.,-1.36247208112957E-17,-2.08166817117217E-16));
#1462=DIRECTION('',(2.08166817117217E-16,-6.12323399573677E-17,-1.));
#1463=DIRECTION('',(1.,2.08166817117217E-16,2.08166817117217E-16));
#1464=DIRECTION('',(2.08166817117217E-16,-6.12323399573677E-17,-1.));
#1465=DIRECTION('',(-2.08166817117217E-16,1.,-6.12323399573677E-17));
#1466=DIRECTION('',(2.08166817117217E-16,-6.12323399573677E-17,-1.));
#1467=DIRECTION('',(-2.08166817117217E-16,1.,-6.12323399573677E-17));
#1468=DIRECTION('',(2.08166817117217E-16,-6.12323399573677E-17,-1.));
#1469=DIRECTION('',(-2.08166817117217E-16,1.,-6.12323399573677E-17));
#1470=DIRECTION('',(2.08166817117217E-16,-6.12323399573677E-17,-1.));
#1471=DIRECTION('',(-2.08166817117217E-16,1.,-6.12323399573677E-17));
#1472=DIRECTION('',(1.,2.08166817117217E-16,2.08166817117217E-16));
#1473=DIRECTION('',(-2.08166817117217E-16,1.,-6.12323399573677E-17));
#1474=DIRECTION('',(-1.,-1.36247208112957E-17,-2.08166817117217E-16));
#1475=DIRECTION('',(2.08166817117217E-16,-1.,6.12323399573677E-17));
#1476=DIRECTION('',(-0.697632284677968,-0.716455996816971,-1.01353615058033E-16));
#1477=DIRECTION('',(0.716455996816971,-0.697632284677967,1.91860021682568E-16));
#1478=DIRECTION('',(2.08166817117217E-16,-1.,6.12323399573677E-17));
#1479=DIRECTION('',(-1.,-2.08166817117217E-16,-2.08166817117217E-16));
#1480=DIRECTION('',(2.08166817117217E-16,-1.,6.12323399573677E-17));
#1481=DIRECTION('',(2.08166817117217E-16,-6.12323399573677E-17,-1.));
#1482=DIRECTION('',(2.08166817117217E-16,-6.12323399573677E-17,-1.));
#1483=DIRECTION('',(-2.08166817117217E-16,1.,-6.12323399573677E-17));
#1484=DIRECTION('',(-1.,-2.08166817117217E-16,-2.08166817117217E-16));
#1485=DIRECTION('',(2.08166817117217E-16,-6.12323399573677E-17,-1.));
#1486=DIRECTION('',(1.,2.08166817117217E-16,2.08166817117217E-16));
#1487=DIRECTION('',(-2.08166817117217E-16,1.,-6.12323399573677E-17));
#1488=DIRECTION('',(2.08166817117217E-16,-6.12323399573677E-17,-1.));
#1489=DIRECTION('',(0.697632284677967,0.716455996816971,1.01353615058033E-16));
#1490=DIRECTION('',(-0.716455996816971,0.697632284677967,-1.91860021682568E-16));
#1491=DIRECTION('',(2.08166817117217E-16,-6.12323399573677E-17,-1.));
#1492=DIRECTION('',(0.716455996816971,-0.697632284677968,1.91860021682568E-16));
#1493=DIRECTION('',(0.697632284677968,0.716455996816971,1.01353615058033E-16));
#1494=DIRECTION('',(2.08166817117217E-16,-6.12323399573677E-17,-1.));
#1495=DIRECTION('',(1.,2.08166817117217E-16,2.08166817117217E-16));
#1496=DIRECTION('',(-2.08166817117217E-16,1.,-6.12323399573677E-17));
#1497=DIRECTION('',(2.08166817117217E-16,-6.12323399573677E-17,-1.));
#1498=DIRECTION('',(1.36247208112956E-17,-1.,6.12323399573677E-17));
#1499=DIRECTION('',(1.,1.36247208112957E-17,2.08166817117217E-16));
#1500=DIRECTION('',(-2.08166817117217E-16,1.22464679914735E-16,1.));
#1501=DIRECTION('',(2.08166817117217E-16,-1.,1.22464679914735E-16));
#1502=DIRECTION('',(-2.08166817117217E-16,1.22464679914735E-16,1.));
#1503=DIRECTION('',(2.08166817117217E-16,-1.,1.22464679914735E-16));
#1504=DIRECTION('',(-2.08166817117217E-16,1.22464679914735E-16,1.));
#1505=DIRECTION('',(2.08166817117217E-16,-1.,1.22464679914735E-16));
#1506=DIRECTION('',(-2.08166817117217E-16,1.22464679914735E-16,1.));
#1507=DIRECTION('',(2.08166817117217E-16,-1.,1.22464679914735E-16));
#1508=DIRECTION('',(2.08166817117217E-16,-6.12323399573677E-17,-1.));
#1509=DIRECTION('',(1.,2.08166817117217E-16,2.08166817117217E-16));
#1510=DIRECTION('',(2.08166817117217E-16,-6.12323399573677E-17,-1.));
#1511=DIRECTION('',(-2.08166817117217E-16,1.,-6.12323399573677E-17));
#1512=DIRECTION('',(2.08166817117217E-16,-6.12323399573677E-17,-1.));
#1513=DIRECTION('',(-2.08166817117217E-16,1.,-6.12323399573677E-17));
#1514=DIRECTION('',(2.08166817117217E-16,-6.12323399573677E-17,-1.));
#1515=DIRECTION('',(-2.08166817117217E-16,1.,-6.12323399573677E-17));
#1516=DIRECTION('',(2.08166817117217E-16,-6.12323399573677E-17,-1.));
#1517=DIRECTION('',(-2.08166817117217E-16,1.,-6.12323399573677E-17));
#1518=DIRECTION('',(2.08166817117217E-16,-6.12323399573677E-17,-1.));
#1519=DIRECTION('',(-2.08166817117217E-16,1.,-6.12323399573677E-17));
#1520=DIRECTION('',(-2.08166817117217E-16,6.12323399573677E-17,1.));
#1521=DIRECTION('',(2.08166817117217E-16,-1.,6.12323399573677E-17));
#1522=DIRECTION('',(-2.08166817117217E-16,6.12323399573677E-17,1.));
#1523=DIRECTION('',(2.08166817117217E-16,-1.,6.12323399573677E-17));
#1524=DIRECTION('',(2.08166817117217E-16,-6.12323399573677E-17,-1.));
#1525=DIRECTION('',(-2.08166817117217E-16,1.,-6.12323399573677E-17));
#1526=DIRECTION('',(-2.08166817117217E-16,6.12323399573677E-17,1.));
#1527=DIRECTION('',(2.08166817117217E-16,-1.,6.12323399573677E-17));
#1528=DIRECTION('',(-2.08166817117217E-16,6.12323399573677E-17,1.));
#1529=DIRECTION('',(2.08166817117217E-16,-1.,6.12323399573677E-17));
#1530=DIRECTION('',(2.08166817117217E-16,-6.12323399573677E-17,-1.));
#1531=DIRECTION('',(-2.08166817117217E-16,1.,-6.12323399573677E-17));
#1532=DIRECTION('',(-2.08166817117217E-16,6.12323399573677E-17,1.));
#1533=DIRECTION('',(2.08166817117217E-16,-1.,6.12323399573677E-17));
#1534=DIRECTION('',(-2.08166817117217E-16,6.12323399573677E-17,1.));
#1535=DIRECTION('',(2.08166817117217E-16,-1.,6.12323399573677E-17));
#1536=DIRECTION('',(2.08166817117217E-16,-6.12323399573677E-17,-1.));
#1537=DIRECTION('',(-2.08166817117217E-16,1.,-6.12323399573677E-17));
#1538=DIRECTION('',(-2.08166817117217E-16,6.12323399573677E-17,1.));
#1539=DIRECTION('',(2.08166817117217E-16,-1.,6.12323399573677E-17));
#1540=DIRECTION('',(-2.08166817117217E-16,6.12323399573677E-17,1.));
#1541=DIRECTION('',(2.08166817117217E-16,-1.,6.12323399573677E-17));
#1542=CARTESIAN_POINT('',(0.,0.,0.));
#1543=CARTESIAN_POINT('',(0.00557548330277132,-0.0342459485642811,0.0258));
#1544=CARTESIAN_POINT('',(0.00557548330277133,-0.0342459485642811,0.00275));
#1545=CARTESIAN_POINT('',(0.00557548330277133,-0.0262459485642811,0.00275));
#1546=CARTESIAN_POINT('',(0.00557548330277133,-0.0422459485642811,0.00275));
#1547=CARTESIAN_POINT('',(0.00557548330277132,-0.0262459485642811,0.0258));
#1548=CARTESIAN_POINT('',(0.00557548330277133,-0.0262459485642811,0.0008));
#1549=CARTESIAN_POINT('',(0.00557548330277133,-0.0342459485642811,0.000800000000000009));
#1550=CARTESIAN_POINT('',(0.00557548330277133,-0.0422459485642811,0.000800000000000009));
#1551=CARTESIAN_POINT('',(0.00557548330277132,-0.0422459485642811,0.0258));
#1552=CARTESIAN_POINT('',(7.54833027713189E-5,-0.0262459485642811,0.0258));
#1553=CARTESIAN_POINT('',(7.54833027713237E-5,-0.0262459485642811,0.00275));
#1554=CARTESIAN_POINT('',(-0.00542451669722868,-0.0262459485642811,0.00275));
#1555=CARTESIAN_POINT('',(-0.00542451669722868,-0.0262459485642811,0.0258));
#1556=CARTESIAN_POINT('',(-0.00542451669722868,-0.0262459485642811,0.0008));
#1557=CARTESIAN_POINT('',(7.54833027713241E-5,-0.0262459485642811,0.0008));
#1558=CARTESIAN_POINT('',(-0.00542451669722868,-0.0342459485642811,0.0258));
#1559=CARTESIAN_POINT('',(-0.00542451669722868,-0.0342459485642811,0.00275));
#1560=CARTESIAN_POINT('',(-0.00542451669722867,-0.0422459485642811,0.00275));
#1561=CARTESIAN_POINT('',(-0.00542451669722868,-0.0422459485642811,0.0258));
#1562=CARTESIAN_POINT('',(-0.00542451669722867,-0.0422459485642811,0.0008));
#1563=CARTESIAN_POINT('',(-0.00542451669722868,-0.0342459485642811,0.0008));
#1564=CARTESIAN_POINT('',(7.54833027713222E-5,-0.0422459485642811,0.0258));
#1565=CARTESIAN_POINT('',(7.5483302771327E-5,-0.0422459485642811,0.00275));
#1566=CARTESIAN_POINT('',(7.54833027713274E-5,-0.0422459485642811,0.0008));
#1567=CARTESIAN_POINT('',(0.00014701161022341,-0.0151055390078867,0.0258));
#1568=CARTESIAN_POINT('',(0.00889701161022341,-0.0151055390078867,0.0258));
#1569=CARTESIAN_POINT('',(0.00889701161022342,-0.0151055390078867,0.00275));
#1570=CARTESIAN_POINT('',(0.00889701161022342,-0.0151055390078867,0.0008));
#1571=CARTESIAN_POINT('',(0.000147011610223415,-0.0151055390078867,0.00275));
#1572=CARTESIAN_POINT('',(-0.00860298838977659,-0.0151055390078867,0.00275));
#1573=CARTESIAN_POINT('',(-0.00860298838977659,-0.0151055390078867,0.0258));
#1574=CARTESIAN_POINT('',(-0.00860298838977659,-0.0151055390078867,0.0008));
#1575=CARTESIAN_POINT('',(0.000147011610223415,-0.0151055390078867,0.0008));
#1576=CARTESIAN_POINT('',(-0.00860298838977659,-0.0182848412851247,0.0258));
#1577=CARTESIAN_POINT('',(-0.00860298838977659,-0.0182848412851247,0.00275));
#1578=CARTESIAN_POINT('',(-0.00860298838977658,-0.0214641435623626,0.00275));
#1579=CARTESIAN_POINT('',(-0.00860298838977659,-0.0214641435623626,0.0258));
#1580=CARTESIAN_POINT('',(-0.00860298838977658,-0.0214641435623626,0.0008));
#1581=CARTESIAN_POINT('',(-0.00860298838977659,-0.0182848412851247,0.0008));
#1582=CARTESIAN_POINT('',(2.80331313717851E-18,-0.0864,0.0398));
#1583=CARTESIAN_POINT('',(8.94423424213641E-18,-0.0864,0.0103));
#1584=CARTESIAN_POINT('',(-0.05,-0.0864,0.0103));
#1585=CARTESIAN_POINT('',(0.05,-0.0864,0.0103));
#1586=CARTESIAN_POINT('',(-0.05,-0.0864,0.0398));
#1587=CARTESIAN_POINT('',(-0.05,-0.0864,0.0008));
#1588=CARTESIAN_POINT('',(1.092181900475E-17,-0.0864,0.000800000000000011));
#1589=CARTESIAN_POINT('',(0.05,-0.0864,0.000800000000000021));
#1590=CARTESIAN_POINT('',(0.05,-0.0864,0.0398));
#1591=CARTESIAN_POINT('',(0.05,-0.0435,0.0398));
#1592=CARTESIAN_POINT('',(0.05,-0.0435,0.0103));
#1593=CARTESIAN_POINT('',(0.05,-0.0006,0.0103));
#1594=CARTESIAN_POINT('',(0.05,-0.0435,0.000800000000000019));
#1595=CARTESIAN_POINT('',(0.05,-0.0006,0.000800000000000016));
#1596=CARTESIAN_POINT('',(0.05,-0.0006,0.0398));
#1597=CARTESIAN_POINT('',(5.759281940243E-18,-0.000599999999999989,0.0398));
#1598=CARTESIAN_POINT('',(1.19002030452009E-17,-0.000599999999999989,0.0103));
#1599=CARTESIAN_POINT('',(-0.05,-0.000599999999999989,0.0103));
#1600=CARTESIAN_POINT('',(1.38777878078145E-17,-0.000599999999999989,0.0008));
#1601=CARTESIAN_POINT('',(-0.05,-0.0006,0.0008));
#1602=CARTESIAN_POINT('',(-0.05,-0.0006,0.0398));
#1603=CARTESIAN_POINT('',(-0.05,-0.0435,0.0398));
#1604=CARTESIAN_POINT('',(-0.05,-0.0435,0.0103));
#1605=CARTESIAN_POINT('',(-0.05,-0.0435,0.0008));
#1606=CARTESIAN_POINT('',(8.9303564543286E-18,-0.0435,0.0008));
#1607=CARTESIAN_POINT('',(0.0475,-0.0031,0.000800000000000016));
#1608=CARTESIAN_POINT('',(0.0475,-0.00435,0.000800000000000016));
#1609=CARTESIAN_POINT('',(0.0475,-0.0839,0.000800000000000021));
#1610=CARTESIAN_POINT('',(0.0475,-0.08515,0.000800000000000021));
#1611=CARTESIAN_POINT('',(-0.0475,-0.0839,0.0008));
#1612=CARTESIAN_POINT('',(-0.0475,-0.08515,0.0008));
#1613=CARTESIAN_POINT('',(-0.0475,-0.0031,0.0008));
#1614=CARTESIAN_POINT('',(-0.0475,-0.00435,0.0008));
#1615=CARTESIAN_POINT('',(-0.0127,-0.0546,0.0008));
#1616=CARTESIAN_POINT('',(-0.0127,-0.05335,0.0008));
#1617=CARTESIAN_POINT('',(-0.0357,-0.0081,0.0008));
#1618=CARTESIAN_POINT('',(-0.0357,-0.00685,0.0008));
#1619=CARTESIAN_POINT('',(-0.0127,-0.0081,0.0008));
#1620=CARTESIAN_POINT('',(-0.0127,-0.00685,0.0008));
#1621=CARTESIAN_POINT('',(-0.0357,-0.0546,0.0008));
#1622=CARTESIAN_POINT('',(-0.0357,-0.05335,0.0008));
#1623=CARTESIAN_POINT('',(0.000147011610223417,-0.0214641435623626,0.0008));
#1624=CARTESIAN_POINT('',(0.00889701161022342,-0.0214641435623626,0.000800000000000009));
#1625=CARTESIAN_POINT('',(0.00889701161022342,-0.0182848412851247,0.000800000000000009));
#1626=CARTESIAN_POINT('',(0.00889701161022341,-0.0182848412851247,0.0258));
#1627=CARTESIAN_POINT('',(0.00889701161022342,-0.0182848412851247,0.00275));
#1628=CARTESIAN_POINT('',(0.00889701161022342,-0.0214641435623626,0.00275));
#1629=CARTESIAN_POINT('',(0.00889701161022341,-0.0214641435623626,0.0258));
#1630=CARTESIAN_POINT('',(2.94972379855096E-18,-0.08182,0.03785));
#1631=CARTESIAN_POINT('',(-0.045,-0.08182,0.03785));
#1632=CARTESIAN_POINT('',(-0.045,-0.08182,0.0103));
#1633=CARTESIAN_POINT('',(-0.045,-0.08182,0.00275));
#1634=CARTESIAN_POINT('',(8.68471961013028E-18,-0.08182,0.0103));
#1635=CARTESIAN_POINT('',(0.045,-0.08182,0.0103));
#1636=CARTESIAN_POINT('',(0.045,-0.08182,0.03785));
#1637=CARTESIAN_POINT('',(0.045,-0.08182,0.00275));
#1638=CARTESIAN_POINT('',(1.02563790793653E-17,-0.08182,0.00275));
#1639=CARTESIAN_POINT('',(0.045,-0.04321,0.03785));
#1640=CARTESIAN_POINT('',(0.045,-0.04321,0.0103));
#1641=CARTESIAN_POINT('',(0.045,-0.0046,0.0103));
#1642=CARTESIAN_POINT('',(0.045,-0.0046,0.03785));
#1643=CARTESIAN_POINT('',(0.045,-0.0046,0.00275));
#1644=CARTESIAN_POINT('',(0.045,-0.04321,0.00275));
#1645=CARTESIAN_POINT('',(5.610095721309E-18,-0.0046,0.03785));
#1646=CARTESIAN_POINT('',(1.13450915328883E-17,-0.0046,0.0103));
#1647=CARTESIAN_POINT('',(-0.045,-0.0046,0.0103));
#1648=CARTESIAN_POINT('',(-0.045,-0.0046,0.03785));
#1649=CARTESIAN_POINT('',(-0.045,-0.0046,0.00275));
#1650=CARTESIAN_POINT('',(1.29167510021233E-17,-0.0046,0.00275));
#1651=CARTESIAN_POINT('',(-0.045,-0.04321,0.03785));
#1652=CARTESIAN_POINT('',(-0.045,-0.04321,0.0103));
#1653=CARTESIAN_POINT('',(-0.045,-0.04321,0.00275));
#1654=CARTESIAN_POINT('',(8.46406278398603E-18,-0.04321,0.00275));
#1655=CARTESIAN_POINT('',(-0.0127,-0.0546,0.00275));
#1656=CARTESIAN_POINT('',(-0.0127,-0.05335,0.00275));
#1657=CARTESIAN_POINT('',(-0.0357,-0.0081,0.00275));
#1658=CARTESIAN_POINT('',(-0.0357,-0.00685,0.00275));
#1659=CARTESIAN_POINT('',(-0.0127,-0.0081,0.00275));
#1660=CARTESIAN_POINT('',(-0.0127,-0.00685,0.00275));
#1661=CARTESIAN_POINT('',(-0.0357,-0.0546,0.00275));
#1662=CARTESIAN_POINT('',(-0.0357,-0.05335,0.00275));
#1663=CARTESIAN_POINT('',(0.000147011610223416,-0.0214641435623626,0.00275));
#1664=CARTESIAN_POINT('',(0.00800731044920108,-0.0214641435623626,0.00275));
#1665=CARTESIAN_POINT('',(0.00800731044920108,-0.0205163571566122,0.00275));
#1666=CARTESIAN_POINT('',(0.00800731044920108,-0.0233777292061264,0.00275));
#1667=CARTESIAN_POINT('',(0.000132310449201076,-0.0233777292061264,0.00275));
#1668=CARTESIAN_POINT('',(-0.00774268955079892,-0.0233777292061264,0.00275));
#1669=CARTESIAN_POINT('',(-0.00774268955079893,-0.0205163571566122,0.00275));
#1670=CARTESIAN_POINT('',(-0.00774268955079893,-0.0214641435623626,0.00275));
#1671=CARTESIAN_POINT('',(0.000147011610223416,-0.0214641435623626,0.00275));
#1672=CARTESIAN_POINT('',(-0.00774268955079893,-0.0205163571566122,0.02525));
#1673=CARTESIAN_POINT('',(-0.00774268955079893,-0.0205163571566122,0.0103));
#1674=CARTESIAN_POINT('',(-0.00774268955079893,-0.0214641435623626,0.0103));
#1675=CARTESIAN_POINT('',(-0.00774268955079893,-0.0233777292061264,0.0103));
#1676=CARTESIAN_POINT('',(-0.00774268955079893,-0.0214641435623626,0.0258));
#1677=CARTESIAN_POINT('',(-0.00774268955079893,-0.0233777292061264,0.02525));
#1678=CARTESIAN_POINT('',(0.00800731044920107,-0.0205163571566122,0.02525));
#1679=CARTESIAN_POINT('',(0.00800731044920107,-0.0214641435623626,0.0258));
#1680=CARTESIAN_POINT('',(0.00800731044920108,-0.0214641435623626,0.0103));
#1681=CARTESIAN_POINT('',(0.00800731044920107,-0.0205163571566122,0.0103));
#1682=CARTESIAN_POINT('',(0.00800731044920108,-0.0233777292061264,0.0103));
#1683=CARTESIAN_POINT('',(0.00800731044920107,-0.0233777292061264,0.02525));
#1684=CARTESIAN_POINT('',(0.000132310449201071,-0.0233777292061264,0.02525));
#1685=CARTESIAN_POINT('',(0.000132310449201074,-0.0233777292061264,0.0103));
#1686=CARTESIAN_POINT('',(0.000147011610223412,-0.0214641435623626,0.0258));
#1687=CARTESIAN_POINT('',(0.000147011610223415,-0.0214641435623626,0.0103));
#1688=CARTESIAN_POINT('',(-0.05,-0.0864,0.0103));
#1689=CARTESIAN_POINT('',(-0.05,-0.0864,0.0103));
#1690=CARTESIAN_POINT('',(0.0475,-0.0031,0.0103));
#1691=CARTESIAN_POINT('',(0.0475,-0.00185,0.0103));
#1692=CARTESIAN_POINT('',(0.0475,-0.0839,0.0103));
#1693=CARTESIAN_POINT('',(0.0475,-0.08265,0.0103));
#1694=CARTESIAN_POINT('',(-0.0475,-0.0839,0.0103));
#1695=CARTESIAN_POINT('',(-0.0475,-0.08265,0.0103));
#1696=CARTESIAN_POINT('',(-0.0475,-0.0031,0.0103));
#1697=CARTESIAN_POINT('',(-0.0475,-0.00185,0.0103));
#1698=CARTESIAN_POINT('',(-0.0357,-0.0546,0.0084));
#1699=CARTESIAN_POINT('',(-0.0127,-0.0081,0.0084));
#1700=CARTESIAN_POINT('',(-0.0357,-0.0081,0.0084));
#1701=CARTESIAN_POINT('',(-0.0127,-0.0546,0.0084));
#1702=CARTESIAN_POINT('',(-0.0475,-0.0031,0.0008));
#1703=CARTESIAN_POINT('',(-0.0475,-0.0839,0.0008));
#1704=CARTESIAN_POINT('',(0.0475,-0.0839,0.000800000000000021));
#1705=CARTESIAN_POINT('',(0.0475,-0.0031,0.000800000000000016));
#1706=CARTESIAN_POINT('',(0.,0.,0.));
#1707=CARTESIAN_POINT('',(-0.05,0.0441,0.0303));
#1708=CARTESIAN_POINT('',(-0.05,0.087,0.0303));
#1709=CARTESIAN_POINT('',(-0.05,0.087,0.0303));
#1710=CARTESIAN_POINT('',(-0.05,0.087,0.0008));
#1711=CARTESIAN_POINT('',(-0.05,0.0441,0.0008));
#1712=CARTESIAN_POINT('',(-0.05,0.0012,0.0008));
#1713=CARTESIAN_POINT('',(-0.05,0.00120000000000002,0.0303));
#1714=CARTESIAN_POINT('',(-0.05,0.00120000000000002,0.0303));
#1715=CARTESIAN_POINT('',(-0.05,0.0441,0.0303));
#1716=CARTESIAN_POINT('',(5.759281940243E-18,0.087,0.0303));
#1717=CARTESIAN_POINT('',(0.05,0.087,0.0303));
#1718=CARTESIAN_POINT('',(0.05,0.087,0.0303));
#1719=CARTESIAN_POINT('',(0.05,0.087,0.000800000000000018));
#1720=CARTESIAN_POINT('',(1.19002030452009E-17,0.087,0.0008));
#1721=CARTESIAN_POINT('',(5.759281940243E-18,0.087,0.0303));
#1722=CARTESIAN_POINT('',(0.05,0.0441,0.0303));
#1723=CARTESIAN_POINT('',(0.05,0.00120000000000003,0.0303));
#1724=CARTESIAN_POINT('',(0.05,0.00120000000000003,0.0303));
#1725=CARTESIAN_POINT('',(0.05,0.00120000000000003,0.000800000000000023));
#1726=CARTESIAN_POINT('',(0.05,0.0441,0.000800000000000021));
#1727=CARTESIAN_POINT('',(0.05,0.0441,0.0303));
#1728=CARTESIAN_POINT('',(2.80331313717851E-18,0.00120000000000002,0.0303));
#1729=CARTESIAN_POINT('',(8.94423424213641E-18,0.00120000000000002,0.000800000000000013));
#1730=CARTESIAN_POINT('',(2.80331313717851E-18,0.00120000000000002,0.0303));
#1731=CARTESIAN_POINT('',(-0.045,0.04439,0.02835));
#1732=CARTESIAN_POINT('',(-0.045,0.04439,0.0008));
#1733=CARTESIAN_POINT('',(-0.045,0.083,0.0008));
#1734=CARTESIAN_POINT('',(-0.045,0.00578,0.0008));
#1735=CARTESIAN_POINT('',(-0.045,0.083,0.02835));
#1736=CARTESIAN_POINT('',(-0.045,0.083,0.02835));
#1737=CARTESIAN_POINT('',(-0.045,0.04439,0.02835));
#1738=CARTESIAN_POINT('',(-0.045,0.00578,0.02835));
#1739=CARTESIAN_POINT('',(-0.045,0.00578,0.02835));
#1740=CARTESIAN_POINT('',(5.610095721309E-18,0.083,0.02835));
#1741=CARTESIAN_POINT('',(1.13450915328883E-17,0.083,0.0008));
#1742=CARTESIAN_POINT('',(0.045,0.083,0.000800000000000016));
#1743=CARTESIAN_POINT('',(0.045,0.083,0.02835));
#1744=CARTESIAN_POINT('',(0.045,0.083,0.02835));
#1745=CARTESIAN_POINT('',(5.610095721309E-18,0.083,0.02835));
#1746=CARTESIAN_POINT('',(0.045,0.04439,0.02835));
#1747=CARTESIAN_POINT('',(0.045,0.04439,0.000800000000000019));
#1748=CARTESIAN_POINT('',(0.045,0.00578,0.000800000000000021));
#1749=CARTESIAN_POINT('',(0.045,0.00578,0.02835));
#1750=CARTESIAN_POINT('',(0.045,0.00578,0.02835));
#1751=CARTESIAN_POINT('',(0.045,0.04439,0.02835));
#1752=CARTESIAN_POINT('',(2.94972379855096E-18,0.00578,0.02835));
#1753=CARTESIAN_POINT('',(8.68471961013028E-18,0.00578,0.000800000000000013));
#1754=CARTESIAN_POINT('',(2.94972379855096E-18,0.00578,0.02835));
#1755=CARTESIAN_POINT('',(8.11850586757143E-19,0.0441,0.0303));
#1756=CARTESIAN_POINT('',(0.0375341116315594,0.0444454718192422,0.0303));
#1757=CARTESIAN_POINT('',(0.0375341116315594,0.0461954718192422,0.0303));
#1758=CARTESIAN_POINT('',(-0.0375,0.0134454718192422,0.0303));
#1759=CARTESIAN_POINT('',(-0.0375,0.0151954718192422,0.0303));
#1760=CARTESIAN_POINT('',(0.0375,0.0134454718192422,0.0303));
#1761=CARTESIAN_POINT('',(0.0375,0.0151954718192422,0.0303));
#1762=CARTESIAN_POINT('',(-0.0375341116315594,0.0444454718192421,0.0303));
#1763=CARTESIAN_POINT('',(-0.0375341116315594,0.0461954718192421,0.0303));
#1764=CARTESIAN_POINT('',(0.0356490835547447,0.0441,0.0303));
#1765=CARTESIAN_POINT('',(0.0356490835547447,0.0169229471564293,0.0303));
#1766=CARTESIAN_POINT('',(0.0356490835547447,0.0417753720164299,0.0303));
#1767=CARTESIAN_POINT('',(6.46921117582967E-18,0.0169229471564293,0.0303));
#1768=CARTESIAN_POINT('',(-0.0356865711510181,0.0169229471564293,0.0303));
#1769=CARTESIAN_POINT('',(-0.0356865711510181,0.0441,0.0303));
#1770=CARTESIAN_POINT('',(-0.0356865711510181,0.0231322894681876,0.0303));
#1771=CARTESIAN_POINT('',(-0.0278484665268444,0.0155001182520896,0.0303));
#1772=CARTESIAN_POINT('',(-0.0415214449167252,0.0288138614475727,0.0303));
#1773=CARTESIAN_POINT('',(-0.0136729783898807,0.0574137431954831,0.0303));
#1774=CARTESIAN_POINT('',(-0.0356865711510181,0.0348061734318734,0.0303));
#1775=CARTESIAN_POINT('',(-0.0356865711510181,0.0441,0.0303));
#1776=CARTESIAN_POINT('',(-0.0356865711510181,0.0417753720164299,0.0303));
#1777=CARTESIAN_POINT('',(8.43522994023411E-19,0.0417753720164299,0.0303));
#1778=CARTESIAN_POINT('',(1.15740750317172E-18,0.04439,0.02835));
#1779=CARTESIAN_POINT('',(0.0375341116315594,0.0444454718192422,0.02835));
#1780=CARTESIAN_POINT('',(0.0375341116315594,0.0461954718192422,0.02835));
#1781=CARTESIAN_POINT('',(-0.0375,0.0134454718192422,0.02835));
#1782=CARTESIAN_POINT('',(-0.0375,0.0151954718192422,0.02835));
#1783=CARTESIAN_POINT('',(0.0375,0.0134454718192422,0.02835));
#1784=CARTESIAN_POINT('',(0.0375,0.0151954718192422,0.02835));
#1785=CARTESIAN_POINT('',(-0.0375341116315594,0.0444454718192421,0.02835));
#1786=CARTESIAN_POINT('',(-0.0375341116315594,0.0461954718192421,0.02835));
#1787=CARTESIAN_POINT('',(6.87513646920824E-18,0.0169229471564293,0.02835));
#1788=CARTESIAN_POINT('',(-0.0356865711510181,0.0169229471564293,0.02835));
#1789=CARTESIAN_POINT('',(0.0356490835547447,0.0169229471564293,0.02835));
#1790=CARTESIAN_POINT('',(0.0356490835547447,0.04439,0.02835));
#1791=CARTESIAN_POINT('',(0.0356490835547447,0.0417753720164299,0.02835));
#1792=CARTESIAN_POINT('',(1.19303107947327E-18,0.0417753720164299,0.02835));
#1793=CARTESIAN_POINT('',(-0.0356865711510181,0.0417753720164299,0.02835));
#1794=CARTESIAN_POINT('',(-0.0356865711510181,0.04439,0.02835));
#1795=CARTESIAN_POINT('',(-0.0356865711510181,0.0348061734318734,0.02835));
#1796=CARTESIAN_POINT('',(-0.0135280297680408,0.0575626028621418,0.02835));
#1797=CARTESIAN_POINT('',(-0.0415214449167252,0.0288138614475727,0.02835));
#1798=CARTESIAN_POINT('',(-0.0279934151486844,0.0156412585854309,0.02835));
#1799=CARTESIAN_POINT('',(-0.0356865711510181,0.0231322894681876,0.02835));
#1800=CARTESIAN_POINT('',(-0.0356865711510181,0.04439,0.02835));
#1801=CARTESIAN_POINT('',(0.0356490835547447,0.0293491595864296,0.0313));
#1802=CARTESIAN_POINT('',(0.0356490835547447,0.0417753720164299,0.0313));
#1803=CARTESIAN_POINT('',(0.0356490835547447,0.0169229471564293,0.0313));
#1804=CARTESIAN_POINT('',(-1.87437981366979E-5,0.0169229471564293,0.0313));
#1805=CARTESIAN_POINT('',(-0.0356865711510181,0.0169229471564293,0.0313));
#1806=CARTESIAN_POINT('',(-0.0356865711510181,0.0200276183123084,0.0313));
#1807=CARTESIAN_POINT('',(-0.0356865711510181,0.0231322894681876,0.0313));
#1808=CARTESIAN_POINT('',(-0.0386040080338717,0.0259730754578801,0.0313));
#1809=CARTESIAN_POINT('',(-0.0415214449167252,0.0288138614475727,0.0313));
#1810=CARTESIAN_POINT('',(-0.0386040080338717,0.031810017439723,0.0313));
#1811=CARTESIAN_POINT('',(-0.0356865711510181,0.0348061734318734,0.0313));
#1812=CARTESIAN_POINT('',(-0.0356865711510181,0.0382907727241517,0.0313));
#1813=CARTESIAN_POINT('',(-0.0356865711510181,0.0417753720164299,0.0313));
#1814=CARTESIAN_POINT('',(-1.874379813671E-5,0.0417753720164299,0.0313));
#1815=CARTESIAN_POINT('',(-0.0375341116315594,0.0444454718192421,0.0239));
#1816=CARTESIAN_POINT('',(0.0375,0.0134454718192422,0.0239));
#1817=CARTESIAN_POINT('',(-0.0375,0.0134454718192422,0.0239));
#1818=CARTESIAN_POINT('',(0.0375341116315594,0.0444454718192422,0.0239));
#1819=CARTESIAN_POINT('',(-0.05,0.00120000000000002,0.0008));
#1820=CARTESIAN_POINT('',(0.0475,0.0845,0.000800000000000016));
#1821=CARTESIAN_POINT('',(0.0475,0.08575,0.000800000000000016));
#1822=CARTESIAN_POINT('',(0.0475,0.0037,0.000800000000000021));
#1823=CARTESIAN_POINT('',(0.0475,0.00495,0.000800000000000021));
#1824=CARTESIAN_POINT('',(-0.0475,0.0037,0.0008));
#1825=CARTESIAN_POINT('',(-0.0475,0.00495,0.0008));
#1826=CARTESIAN_POINT('',(-0.0475,0.0845,0.0008));
#1827=CARTESIAN_POINT('',(-0.0475,0.08575,0.0008));
#1828=CARTESIAN_POINT('',(-0.0475,0.0845,0.00544545));
#1829=CARTESIAN_POINT('',(-0.0475,0.0845,0.00619652577378445));
#1830=CARTESIAN_POINT('',(-0.0475,0.0845,0.00544545));
#1831=CARTESIAN_POINT('',(-0.0475,0.08325,0.00544545));
#1832=CARTESIAN_POINT('',(-0.0475,0.0845,-0.0087));
#1833=CARTESIAN_POINT('',(-0.0475,0.0037,0.00544545));
#1834=CARTESIAN_POINT('',(-0.0475,0.0037,0.00619652577378445));
#1835=CARTESIAN_POINT('',(-0.0475,0.0037,0.00544545));
#1836=CARTESIAN_POINT('',(-0.0475,0.00245,0.00544545));
#1837=CARTESIAN_POINT('',(-0.0475,0.0037,-0.0087));
#1838=CARTESIAN_POINT('',(0.0475,0.0037,0.00544545));
#1839=CARTESIAN_POINT('',(0.0475,0.0037,0.00619652577378447));
#1840=CARTESIAN_POINT('',(0.0475,0.0037,0.00544545));
#1841=CARTESIAN_POINT('',(0.0475,0.00245,0.00544545));
#1842=CARTESIAN_POINT('',(0.0475,0.0037,-0.0087));
#1843=CARTESIAN_POINT('',(0.0475,0.0845,0.00544545));
#1844=CARTESIAN_POINT('',(0.0475,0.0845,0.00619652577378447));
#1845=CARTESIAN_POINT('',(0.0475,0.0845,0.00544545));
#1846=CARTESIAN_POINT('',(0.0475,0.08325,0.00544545));
#1847=CARTESIAN_POINT('',(0.0475,0.0845,-0.0087));
#1848=MECHANICAL_DESIGN_GEOMETRIC_PRESENTATION_REPRESENTATION('',(#1131),
#1850);
#1849=MECHANICAL_DESIGN_GEOMETRIC_PRESENTATION_REPRESENTATION('',(#1132),
#1851);
#1850=(
GEOMETRIC_REPRESENTATION_CONTEXT(3)
GLOBAL_UNCERTAINTY_ASSIGNED_CONTEXT((#1852))
GLOBAL_UNIT_ASSIGNED_CONTEXT((#1858,#1856,#1854))
REPRESENTATION_CONTEXT('Back','TOP_LEVEL_ASSEMBLY_PART')
);
#1851=(
GEOMETRIC_REPRESENTATION_CONTEXT(3)
GLOBAL_UNCERTAINTY_ASSIGNED_CONTEXT((#1853))
GLOBAL_UNIT_ASSIGNED_CONTEXT((#1859,#1857,#1855))
REPRESENTATION_CONTEXT('Front','TOP_LEVEL_ASSEMBLY_PART')
);
#1852=UNCERTAINTY_MEASURE_WITH_UNIT(LENGTH_MEASURE(1.E-8),#1858,
'DISTANCE_ACCURACY_VALUE','Maximum Tolerance applied to model');
#1853=UNCERTAINTY_MEASURE_WITH_UNIT(LENGTH_MEASURE(1.E-8),#1859,
'DISTANCE_ACCURACY_VALUE','Maximum Tolerance applied to model');
#1854=(
NAMED_UNIT(*)
SI_UNIT($,.STERADIAN.)
SOLID_ANGLE_UNIT()
);
#1855=(
NAMED_UNIT(*)
SI_UNIT($,.STERADIAN.)
SOLID_ANGLE_UNIT()
);
#1856=(
NAMED_UNIT(*)
PLANE_ANGLE_UNIT()
SI_UNIT($,.RADIAN.)
);
#1857=(
NAMED_UNIT(*)
PLANE_ANGLE_UNIT()
SI_UNIT($,.RADIAN.)
);
#1858=(
LENGTH_UNIT()
NAMED_UNIT(*)
SI_UNIT($,.METRE.)
);
#1859=(
LENGTH_UNIT()
NAMED_UNIT(*)
SI_UNIT($,.METRE.)
);
#1860=PRODUCT_DEFINITION_SHAPE('','',#1862);
#1861=PRODUCT_DEFINITION_SHAPE('','',#1863);
#1862=PRODUCT_DEFINITION('','',#1866,#1864);
#1863=PRODUCT_DEFINITION('','',#1867,#1865);
#1864=PRODUCT_DEFINITION_CONTEXT('',#1878,'design');
#1865=PRODUCT_DEFINITION_CONTEXT('',#1879,'design');
#1866=PRODUCT_DEFINITION_FORMATION_WITH_SPECIFIED_SOURCE('','',#1870,
 .NOT_KNOWN.);
#1867=PRODUCT_DEFINITION_FORMATION_WITH_SPECIFIED_SOURCE('','',#1871,
 .NOT_KNOWN.);
#1868=PRODUCT_RELATED_PRODUCT_CATEGORY('','',(#1870));
#1869=PRODUCT_RELATED_PRODUCT_CATEGORY('','',(#1871));
#1870=PRODUCT('Back','Back','Back',(#1874));
#1871=PRODUCT('Front','Front','Front',(#1875));
#1872=PRODUCT_CATEGORY('','');
#1873=PRODUCT_CATEGORY('','');
#1874=PRODUCT_CONTEXT('',#1878,'mechanical');
#1875=PRODUCT_CONTEXT('',#1879,'mechanical');
#1876=APPLICATION_PROTOCOL_DEFINITION('international standard',
'ap242_managed_model_based_3d_engineering',2020,#1878);
#1877=APPLICATION_PROTOCOL_DEFINITION('international standard',
'ap242_managed_model_based_3d_engineering',2020,#1879);
#1878=APPLICATION_CONTEXT('managed model based 3d engineering');
#1879=APPLICATION_CONTEXT('managed model based 3d engineering');
ENDSEC;
END-ISO-10303-21;
